<svg viewBox="0 0 720 410" xmlns="http://www.w3.org/2000/svg">
  <rect width="720" height="410" fill="#e8d5c1"/>
<text x="360.0" y="30" text-anchor="middle" font-family="Arial" font-size="18" font-weight="bold" fill="#3b2a1a">APNIC-Region ASPA Adoption by Country</text>
<text x="360.0" y="52" text-anchor="middle" font-family="Arial" font-size="12" fill="#7a6650">(n=97)</text>
<path d="M190,220.0 L190.00,70.00 A150,150 0 0,1 327.87,160.92 Z" fill="#c0654b" stroke="#e8d5c1" stroke-width="2"/>
<text x="246.2" y="134.8" text-anchor="middle" font-family="Arial" font-size="11" font-weight="bold" fill="#f2e8db">19%</text>
<path d="M190,220.0 L327.87,160.92 A150,150 0 0,1 316.54,300.54 Z" fill="#8a9a5b" stroke="#e8d5c1" stroke-width="2"/>
<text x="291.7" y="228.2" text-anchor="middle" font-family="Arial" font-size="11" font-weight="bold" fill="#f2e8db">15%</text>
<path d="M190,220.0 L316.54,300.54 A150,150 0 0,1 214.18,368.04 Z" fill="#3f6b66" stroke="#e8d5c1" stroke-width="2"/>
<text x="246.2" y="305.2" text-anchor="middle" font-family="Arial" font-size="11" font-weight="bold" fill="#f2e8db">13%</text>
<path d="M190,220.0 L214.18,368.04 A150,150 0 0,1 128.69,356.90 Z" fill="#d1a24a" stroke="#e8d5c1" stroke-width="2"/>
<text x="176.8" y="321.1" text-anchor="middle" font-family="Arial" font-size="11" font-weight="bold" fill="#f2e8db">9%</text>
<path d="M190,220.0 L128.69,356.90 A150,150 0 0,1 68.93,308.56 Z" fill="#7d5a6a" stroke="#e8d5c1" stroke-width="2"/>
<text x="125.9" y="299.3" text-anchor="middle" font-family="Arial" font-size="11" font-weight="bold" fill="#f2e8db">8%</text>
<path d="M190,220.0 L68.93,308.56 A150,150 0 0,1 40.96,236.97 Z" fill="#5b7a99" stroke="#e8d5c1" stroke-width="2"/>
<text x="95.0" y="257.1" text-anchor="middle" font-family="Arial" font-size="11" font-weight="bold" fill="#f2e8db">8%</text>
<path d="M190,220.0 L40.96,236.97 A150,150 0 0,1 43.31,188.65 Z" fill="#a8763e" stroke="#e8d5c1" stroke-width="2"/>
<text x="88.1" y="215.0" text-anchor="middle" font-family="Arial" font-size="11" font-weight="bold" fill="#f2e8db">5%</text>
<path d="M190,220.0 L43.31,188.65 A150,150 0 0,1 56.24,152.12 Z" fill="#6b8f71" stroke="#e8d5c1" stroke-width="2"/>
<text x="93.8" y="186.0" text-anchor="middle" font-family="Arial" font-size="11" font-weight="bold" fill="#f2e8db">4%</text>
<path d="M190,220.0 L56.24,152.12 A150,150 0 0,1 78.10,120.11 Z" fill="#c0654b" stroke="#e8d5c1" stroke-width="2"/>
<text x="105.8" y="162.5" text-anchor="middle" font-family="Arial" font-size="11" font-weight="bold" fill="#f2e8db">4%</text>
<path d="M190,220.0 L78.10,120.11 A150,150 0 0,1 99.49,100.38 Z" fill="#8a9a5b" stroke="#e8d5c1" stroke-width="2"/>
<path d="M190,220.0 L99.49,100.38 A150,150 0 0,1 124.29,85.16 Z" fill="#3f6b66" stroke="#e8d5c1" stroke-width="2"/>
<path d="M190,220.0 L124.29,85.16 A150,150 0 0,1 151.57,75.01 Z" fill="#d1a24a" stroke="#e8d5c1" stroke-width="2"/>
<path d="M190,220.0 L151.57,75.01 A150,150 0 0,1 170.62,71.26 Z" fill="#7d5a6a" stroke="#e8d5c1" stroke-width="2"/>
<path d="M190,220.0 L170.62,71.26 A150,150 0 0,1 190.00,70.00 Z" fill="#5b7a99" stroke="#e8d5c1" stroke-width="2"/>
<rect x="400" y="70" width="14" height="14" fill="#c0654b"/>
<text x="420" y="81" font-family="Arial" font-size="12" fill="#3b2a1a">AU (18)</text>
<rect x="400" y="94" width="14" height="14" fill="#8a9a5b"/>
<text x="420" y="105" font-family="Arial" font-size="12" fill="#3b2a1a">PK (15)</text>
<rect x="400" y="118" width="14" height="14" fill="#3f6b66"/>
<text x="420" y="129" font-family="Arial" font-size="12" fill="#3b2a1a">IN (13)</text>
<rect x="400" y="142" width="14" height="14" fill="#d1a24a"/>
<text x="420" y="153" font-family="Arial" font-size="12" fill="#3b2a1a">Others (9)</text>
<rect x="400" y="166" width="14" height="14" fill="#7d5a6a"/>
<text x="420" y="177" font-family="Arial" font-size="12" fill="#3b2a1a">NZ (8)</text>
<rect x="400" y="190" width="14" height="14" fill="#5b7a99"/>
<text x="420" y="201" font-family="Arial" font-size="12" fill="#3b2a1a">BD (8)</text>
<rect x="400" y="214" width="14" height="14" fill="#a8763e"/>
<text x="420" y="225" font-family="Arial" font-size="12" fill="#3b2a1a">SG (5)</text>
<rect x="400" y="238" width="14" height="14" fill="#6b8f71"/>
<text x="420" y="249" font-family="Arial" font-size="12" fill="#3b2a1a">PH (4)</text>
<rect x="400" y="262" width="14" height="14" fill="#c0654b"/>
<text x="420" y="273" font-family="Arial" font-size="12" fill="#3b2a1a">CN (4)</text>
<rect x="400" y="286" width="14" height="14" fill="#8a9a5b"/>
<text x="420" y="297" font-family="Arial" font-size="12" fill="#3b2a1a">FJ (3)</text>
<rect x="400" y="310" width="14" height="14" fill="#3f6b66"/>
<text x="420" y="321" font-family="Arial" font-size="12" fill="#3b2a1a">JP (3)</text>
<rect x="400" y="334" width="14" height="14" fill="#d1a24a"/>
<text x="420" y="345" font-family="Arial" font-size="12" fill="#3b2a1a">NR (3)</text>
<rect x="400" y="358" width="14" height="14" fill="#7d5a6a"/>
<text x="420" y="369" font-family="Arial" font-size="12" fill="#3b2a1a">TH (2)</text>
<rect x="400" y="382" width="14" height="14" fill="#5b7a99"/>
<text x="420" y="393" font-family="Arial" font-size="12" fill="#3b2a1a">LK (2)</text>
</svg>
