<svg viewBox="0 0 720 688" xmlns="http://www.w3.org/2000/svg">
  <rect width="720" height="688" fill="#e8d5c1"/>
<text x="360.0" y="30" text-anchor="middle" font-family="Arial" font-size="18" font-weight="bold" fill="#3b2a1a">APNIC-Region ASPA Adoption by Country</text>
<text x="360.0" y="52" text-anchor="middle" font-family="Arial" font-size="12" fill="#7a6650">(n=449)</text>
<path d="M190,359.0 L190.00,209.00 A150,150 0 0,1 327.61,299.30 Z" fill="#c0654b" stroke="#e8d5c1" stroke-width="2"/>
<text x="246.0" y="273.7" text-anchor="middle" font-family="Arial" font-size="11" font-weight="bold" fill="#f2e8db">18%</text>
<path d="M190,359.0 L327.61,299.30 A150,150 0 0,1 318.48,436.41 Z" fill="#8a9a5b" stroke="#e8d5c1" stroke-width="2"/>
<text x="291.8" y="365.8" text-anchor="middle" font-family="Arial" font-size="11" font-weight="bold" fill="#f2e8db">15%</text>
<path d="M190,359.0 L318.48,436.41 A150,150 0 0,1 205.71,508.17 Z" fill="#3f6b66" stroke="#e8d5c1" stroke-width="2"/>
<text x="244.8" y="445.1" text-anchor="middle" font-family="Arial" font-size="11" font-weight="bold" fill="#f2e8db">15%</text>
<path d="M190,359.0 L205.71,508.17 A150,150 0 0,1 133.69,498.03 Z" fill="#d1a24a" stroke="#e8d5c1" stroke-width="2"/>
<text x="175.8" y="460.0" text-anchor="middle" font-family="Arial" font-size="11" font-weight="bold" fill="#f2e8db">8%</text>
<path d="M190,359.0 L133.69,498.03 A150,150 0 0,1 81.91,463.01 Z" fill="#7d5a6a" stroke="#e8d5c1" stroke-width="2"/>
<text x="132.9" y="443.5" text-anchor="middle" font-family="Arial" font-size="11" font-weight="bold" fill="#f2e8db">7%</text>
<path d="M190,359.0 L81.91,463.01 A150,150 0 0,1 50.39,413.85 Z" fill="#5b7a99" stroke="#e8d5c1" stroke-width="2"/>
<text x="104.1" y="414.1" text-anchor="middle" font-family="Arial" font-size="11" font-weight="bold" fill="#f2e8db">6%</text>
<path d="M190,359.0 L50.39,413.85 A150,150 0 0,1 40.00,358.48 Z" fill="#a8763e" stroke="#e8d5c1" stroke-width="2"/>
<text x="89.7" y="377.8" text-anchor="middle" font-family="Arial" font-size="11" font-weight="bold" fill="#f2e8db">6%</text>
<path d="M190,359.0 L40.00,358.48 A150,150 0 0,1 44.87,321.11 Z" fill="#6b8f71" stroke="#e8d5c1" stroke-width="2"/>
<text x="88.9" y="345.8" text-anchor="middle" font-family="Arial" font-size="11" font-weight="bold" fill="#f2e8db">4%</text>
<path d="M190,359.0 L44.87,321.11 A150,150 0 0,1 55.02,293.58 Z" fill="#c0654b" stroke="#e8d5c1" stroke-width="2"/>
<path d="M190,359.0 L55.02,293.58 A150,150 0 0,1 67.85,271.94 Z" fill="#8a9a5b" stroke="#e8d5c1" stroke-width="2"/>
<path d="M190,359.0 L67.85,271.94 A150,150 0 0,1 78.34,258.84 Z" fill="#3f6b66" stroke="#e8d5c1" stroke-width="2"/>
<path d="M190,359.0 L78.34,258.84 A150,150 0 0,1 88.67,248.40 Z" fill="#d1a24a" stroke="#e8d5c1" stroke-width="2"/>
<path d="M190,359.0 L88.67,248.40 A150,150 0 0,1 99.97,239.02 Z" fill="#7d5a6a" stroke="#e8d5c1" stroke-width="2"/>
<path d="M190,359.0 L99.97,239.02 A150,150 0 0,1 110.35,231.89 Z" fill="#5b7a99" stroke="#e8d5c1" stroke-width="2"/>
<path d="M190,359.0 L110.35,231.89 A150,150 0 0,1 121.29,225.66 Z" fill="#a8763e" stroke="#e8d5c1" stroke-width="2"/>
<path d="M190,359.0 L121.29,225.66 A150,150 0 0,1 128.86,222.03 Z" fill="#6b8f71" stroke="#e8d5c1" stroke-width="2"/>
<path d="M190,359.0 L128.86,222.03 A150,150 0 0,1 136.62,218.82 Z" fill="#c0654b" stroke="#e8d5c1" stroke-width="2"/>
<path d="M190,359.0 L136.62,218.82 A150,150 0 0,1 144.55,216.05 Z" fill="#8a9a5b" stroke="#e8d5c1" stroke-width="2"/>
<path d="M190,359.0 L144.55,216.05 A150,150 0 0,1 152.62,213.73 Z" fill="#3f6b66" stroke="#e8d5c1" stroke-width="2"/>
<path d="M190,359.0 L152.62,213.73 A150,150 0 0,1 158.74,212.29 Z" fill="#d1a24a" stroke="#e8d5c1" stroke-width="2"/>
<path d="M190,359.0 L158.74,212.29 A150,150 0 0,1 164.93,211.11 Z" fill="#7d5a6a" stroke="#e8d5c1" stroke-width="2"/>
<path d="M190,359.0 L164.93,211.11 A150,150 0 0,1 169.08,210.47 Z" fill="#5b7a99" stroke="#e8d5c1" stroke-width="2"/>
<path d="M190,359.0 L169.08,210.47 A150,150 0 0,1 173.24,209.94 Z" fill="#a8763e" stroke="#e8d5c1" stroke-width="2"/>
<path d="M190,359.0 L173.24,209.94 A150,150 0 0,1 177.42,209.53 Z" fill="#6b8f71" stroke="#e8d5c1" stroke-width="2"/>
<path d="M190,359.0 L177.42,209.53 A150,150 0 0,1 181.61,209.23 Z" fill="#c0654b" stroke="#e8d5c1" stroke-width="2"/>
<path d="M190,359.0 L181.61,209.23 A150,150 0 0,1 185.80,209.06 Z" fill="#8a9a5b" stroke="#e8d5c1" stroke-width="2"/>
<path d="M190,359.0 L185.80,209.06 A150,150 0 0,1 190.00,209.00 Z" fill="#3f6b66" stroke="#e8d5c1" stroke-width="2"/>
<rect x="400" y="70" width="14" height="14" fill="#c0654b"/>
<text x="420" y="81" font-family="Arial" font-size="12" fill="#3b2a1a">AU (83)</text>
<rect x="400" y="94" width="14" height="14" fill="#8a9a5b"/>
<text x="420" y="105" font-family="Arial" font-size="12" fill="#3b2a1a">IN (68)</text>
<rect x="400" y="118" width="14" height="14" fill="#3f6b66"/>
<text x="420" y="129" font-family="Arial" font-size="12" fill="#3b2a1a">BD (66)</text>
<rect x="400" y="142" width="14" height="14" fill="#d1a24a"/>
<text x="420" y="153" font-family="Arial" font-size="12" fill="#3b2a1a">PH (35)</text>
<rect x="400" y="166" width="14" height="14" fill="#7d5a6a"/>
<text x="420" y="177" font-family="Arial" font-size="12" fill="#3b2a1a">PK (30)</text>
<rect x="400" y="190" width="14" height="14" fill="#5b7a99"/>
<text x="420" y="201" font-family="Arial" font-size="12" fill="#3b2a1a">NP (28)</text>
<rect x="400" y="214" width="14" height="14" fill="#a8763e"/>
<text x="420" y="225" font-family="Arial" font-size="12" fill="#3b2a1a">NZ (27)</text>
<rect x="400" y="238" width="14" height="14" fill="#6b8f71"/>
<text x="420" y="249" font-family="Arial" font-size="12" fill="#3b2a1a">SG (18)</text>
<rect x="400" y="262" width="14" height="14" fill="#c0654b"/>
<text x="420" y="273" font-family="Arial" font-size="12" fill="#3b2a1a">BT (14)</text>
<rect x="400" y="286" width="14" height="14" fill="#8a9a5b"/>
<text x="420" y="297" font-family="Arial" font-size="12" fill="#3b2a1a">TH (12)</text>
<rect x="400" y="310" width="14" height="14" fill="#3f6b66"/>
<text x="420" y="321" font-family="Arial" font-size="12" fill="#3b2a1a">HK (8)</text>
<rect x="400" y="334" width="14" height="14" fill="#d1a24a"/>
<text x="420" y="345" font-family="Arial" font-size="12" fill="#3b2a1a">CN (7)</text>
<rect x="400" y="358" width="14" height="14" fill="#7d5a6a"/>
<text x="420" y="369" font-family="Arial" font-size="12" fill="#3b2a1a">Others (7)</text>
<rect x="400" y="382" width="14" height="14" fill="#5b7a99"/>
<text x="420" y="393" font-family="Arial" font-size="12" fill="#3b2a1a">JP (6)</text>
<rect x="400" y="406" width="14" height="14" fill="#a8763e"/>
<text x="420" y="417" font-family="Arial" font-size="12" fill="#3b2a1a">MM (6)</text>
<rect x="400" y="430" width="14" height="14" fill="#6b8f71"/>
<text x="420" y="441" font-family="Arial" font-size="12" fill="#3b2a1a">ID (4)</text>
<rect x="400" y="454" width="14" height="14" fill="#c0654b"/>
<text x="420" y="465" font-family="Arial" font-size="12" fill="#3b2a1a">FJ (4)</text>
<rect x="400" y="478" width="14" height="14" fill="#8a9a5b"/>
<text x="420" y="489" font-family="Arial" font-size="12" fill="#3b2a1a">PG (4)</text>
<rect x="400" y="502" width="14" height="14" fill="#3f6b66"/>
<text x="420" y="513" font-family="Arial" font-size="12" fill="#3b2a1a">MY (4)</text>
<rect x="400" y="526" width="14" height="14" fill="#d1a24a"/>
<text x="420" y="537" font-family="Arial" font-size="12" fill="#3b2a1a">TO (3)</text>
<rect x="400" y="550" width="14" height="14" fill="#7d5a6a"/>
<text x="420" y="561" font-family="Arial" font-size="12" fill="#3b2a1a">NR (3)</text>
<rect x="400" y="574" width="14" height="14" fill="#5b7a99"/>
<text x="420" y="585" font-family="Arial" font-size="12" fill="#3b2a1a">LK (2)</text>
<rect x="400" y="598" width="14" height="14" fill="#a8763e"/>
<text x="420" y="609" font-family="Arial" font-size="12" fill="#3b2a1a">LA (2)</text>
<rect x="400" y="622" width="14" height="14" fill="#6b8f71"/>
<text x="420" y="633" font-family="Arial" font-size="12" fill="#3b2a1a">TL (2)</text>
<rect x="400" y="646" width="14" height="14" fill="#c0654b"/>
<text x="420" y="657" font-family="Arial" font-size="12" fill="#3b2a1a">WS (2)</text>
<rect x="400" y="670" width="14" height="14" fill="#8a9a5b"/>
<text x="420" y="681" font-family="Arial" font-size="12" fill="#3b2a1a">US (2)</text>
<rect x="400" y="694" width="14" height="14" fill="#3f6b66"/>
<text x="420" y="705" font-family="Arial" font-size="12" fill="#3b2a1a">AF (2)</text>
</svg>
