<svg viewBox="0 0 720 424" xmlns="http://www.w3.org/2000/svg">
  <rect width="720" height="424" fill="#e8d5c1"/>
<text x="360.0" y="30" text-anchor="middle" font-family="Arial" font-size="18" font-weight="bold" fill="#3b2a1a">APNIC-Region ASPA Adoption by Country</text>
<text x="360.0" y="52" text-anchor="middle" font-family="Arial" font-size="12" fill="#7a6650">(n=138)</text>
<path d="M190,227.0 L190.00,77.00 A150,150 0 0,1 339.65,216.76 Z" fill="#c0654b" stroke="#e8d5c1" stroke-width="2"/>
<text x="259.6" y="152.5" text-anchor="middle" font-family="Arial" font-size="11" font-weight="bold" fill="#f2e8db">24%</text>
<path d="M190,227.0 L339.65,216.76 A150,150 0 0,1 284.66,343.36 Z" fill="#8a9a5b" stroke="#e8d5c1" stroke-width="2"/>
<text x="283.6" y="267.6" text-anchor="middle" font-family="Arial" font-size="11" font-weight="bold" fill="#f2e8db">15%</text>
<path d="M190,227.0 L284.66,343.36 A150,150 0 0,1 176.36,376.38 Z" fill="#3f6b66" stroke="#e8d5c1" stroke-width="2"/>
<text x="219.7" y="324.6" text-anchor="middle" font-family="Arial" font-size="11" font-weight="bold" fill="#f2e8db">12%</text>
<path d="M190,227.0 L176.36,376.38 A150,150 0 0,1 112.06,355.16 Z" fill="#d1a24a" stroke="#e8d5c1" stroke-width="2"/>
<text x="158.0" y="323.9" text-anchor="middle" font-family="Arial" font-size="11" font-weight="bold" fill="#f2e8db">7%</text>
<path d="M190,227.0 L112.06,355.16 A150,150 0 0,1 67.45,313.50 Z" fill="#7d5a6a" stroke="#e8d5c1" stroke-width="2"/>
<text x="120.4" y="301.5" text-anchor="middle" font-family="Arial" font-size="11" font-weight="bold" fill="#f2e8db">7%</text>
<path d="M190,227.0 L67.45,313.50 A150,150 0 0,1 44.68,264.17 Z" fill="#5b7a99" stroke="#e8d5c1" stroke-width="2"/>
<text x="97.4" y="269.8" text-anchor="middle" font-family="Arial" font-size="11" font-weight="bold" fill="#f2e8db">6%</text>
<path d="M190,227.0 L44.68,264.17 A150,150 0 0,1 40.35,216.76 Z" fill="#a8763e" stroke="#e8d5c1" stroke-width="2"/>
<text x="88.4" y="236.3" text-anchor="middle" font-family="Arial" font-size="11" font-weight="bold" fill="#f2e8db">5%</text>
<path d="M190,227.0 L40.35,216.76 A150,150 0 0,1 48.66,176.77 Z" fill="#6b8f71" stroke="#e8d5c1" stroke-width="2"/>
<text x="90.1" y="206.2" text-anchor="middle" font-family="Arial" font-size="11" font-weight="bold" fill="#f2e8db">4%</text>
<path d="M190,227.0 L48.66,176.77 A150,150 0 0,1 67.45,140.50 Z" fill="#c0654b" stroke="#e8d5c1" stroke-width="2"/>
<text x="99.4" y="180.1" text-anchor="middle" font-family="Arial" font-size="11" font-weight="bold" fill="#f2e8db">4%</text>
<path d="M190,227.0 L67.45,140.50 A150,150 0 0,1 85.15,119.73 Z" fill="#8a9a5b" stroke="#e8d5c1" stroke-width="2"/>
<path d="M190,227.0 L85.15,119.73 A150,150 0 0,1 106.31,102.52 Z" fill="#3f6b66" stroke="#e8d5c1" stroke-width="2"/>
<path d="M190,227.0 L106.31,102.52 A150,150 0 0,1 124.04,92.28 Z" fill="#d1a24a" stroke="#e8d5c1" stroke-width="2"/>
<path d="M190,227.0 L124.04,92.28 A150,150 0 0,1 143.00,84.55 Z" fill="#7d5a6a" stroke="#e8d5c1" stroke-width="2"/>
<path d="M190,227.0 L143.00,84.55 A150,150 0 0,1 162.83,79.48 Z" fill="#5b7a99" stroke="#e8d5c1" stroke-width="2"/>
<path d="M190,227.0 L162.83,79.48 A150,150 0 0,1 176.36,77.62 Z" fill="#a8763e" stroke="#e8d5c1" stroke-width="2"/>
<path d="M190,227.0 L176.36,77.62 A150,150 0 0,1 190.00,77.00 Z" fill="#6b8f71" stroke="#e8d5c1" stroke-width="2"/>
<rect x="400" y="70" width="14" height="14" fill="#c0654b"/>
<text x="420" y="81" font-family="Arial" font-size="12" fill="#3b2a1a">IN (33)</text>
<rect x="400" y="94" width="14" height="14" fill="#8a9a5b"/>
<text x="420" y="105" font-family="Arial" font-size="12" fill="#3b2a1a">AU (21)</text>
<rect x="400" y="118" width="14" height="14" fill="#3f6b66"/>
<text x="420" y="129" font-family="Arial" font-size="12" fill="#3b2a1a">PK (17)</text>
<rect x="400" y="142" width="14" height="14" fill="#d1a24a"/>
<text x="420" y="153" font-family="Arial" font-size="12" fill="#3b2a1a">Others (10)</text>
<rect x="400" y="166" width="14" height="14" fill="#7d5a6a"/>
<text x="420" y="177" font-family="Arial" font-size="12" fill="#3b2a1a">BD (9)</text>
<rect x="400" y="190" width="14" height="14" fill="#5b7a99"/>
<text x="420" y="201" font-family="Arial" font-size="12" fill="#3b2a1a">NZ (8)</text>
<rect x="400" y="214" width="14" height="14" fill="#a8763e"/>
<text x="420" y="225" font-family="Arial" font-size="12" fill="#3b2a1a">SG (7)</text>
<rect x="400" y="238" width="14" height="14" fill="#6b8f71"/>
<text x="420" y="249" font-family="Arial" font-size="12" fill="#3b2a1a">PH (6)</text>
<rect x="400" y="262" width="14" height="14" fill="#c0654b"/>
<text x="420" y="273" font-family="Arial" font-size="12" fill="#3b2a1a">CN (6)</text>
<rect x="400" y="286" width="14" height="14" fill="#8a9a5b"/>
<text x="420" y="297" font-family="Arial" font-size="12" fill="#3b2a1a">TH (4)</text>
<rect x="400" y="310" width="14" height="14" fill="#3f6b66"/>
<text x="420" y="321" font-family="Arial" font-size="12" fill="#3b2a1a">N/A (4)</text>
<rect x="400" y="334" width="14" height="14" fill="#d1a24a"/>
<text x="420" y="345" font-family="Arial" font-size="12" fill="#3b2a1a">FJ (3)</text>
<rect x="400" y="358" width="14" height="14" fill="#7d5a6a"/>
<text x="420" y="369" font-family="Arial" font-size="12" fill="#3b2a1a">NR (3)</text>
<rect x="400" y="382" width="14" height="14" fill="#5b7a99"/>
<text x="420" y="393" font-family="Arial" font-size="12" fill="#3b2a1a">MM (3)</text>
<rect x="400" y="406" width="14" height="14" fill="#a8763e"/>
<text x="420" y="417" font-family="Arial" font-size="12" fill="#3b2a1a">LK (2)</text>
<rect x="400" y="430" width="14" height="14" fill="#6b8f71"/>
<text x="420" y="441" font-family="Arial" font-size="12" fill="#3b2a1a">JP (2)</text>
</svg>
