<svg viewBox="0 0 720 410" xmlns="http://www.w3.org/2000/svg">
  <rect width="720" height="410" fill="#e8d5c1"/>
<text x="360.0" y="30" text-anchor="middle" font-family="Arial" font-size="18" font-weight="bold" fill="#3b2a1a">APNIC-Region ASPA Adoption by Country</text>
<text x="360.0" y="52" text-anchor="middle" font-family="Arial" font-size="12" fill="#7a6650">(n=109)</text>
<path d="M190,220.0 L190.00,70.00 A150,150 0 0,1 333.18,175.30 Z" fill="#c0654b" stroke="#e8d5c1" stroke-width="2"/>
<text x="250.4" y="137.8" text-anchor="middle" font-family="Arial" font-size="11" font-weight="bold" fill="#f2e8db">20%</text>
<path d="M190,220.0 L333.18,175.30 A150,150 0 0,1 301.28,320.58 Z" fill="#8a9a5b" stroke="#e8d5c1" stroke-width="2"/>
<text x="289.6" y="241.9" text-anchor="middle" font-family="Arial" font-size="11" font-weight="bold" fill="#f2e8db">17%</text>
<path d="M190,220.0 L301.28,320.58 A150,150 0 0,1 185.68,369.94 Z" fill="#3f6b66" stroke="#e8d5c1" stroke-width="2"/>
<text x="230.0" y="313.8" text-anchor="middle" font-family="Arial" font-size="11" font-weight="bold" fill="#f2e8db">14%</text>
<path d="M190,220.0 L185.68,369.94 A150,150 0 0,1 97.69,338.23 Z" fill="#d1a24a" stroke="#e8d5c1" stroke-width="2"/>
<text x="155.4" y="316.0" text-anchor="middle" font-family="Arial" font-size="11" font-weight="bold" fill="#f2e8db">10%</text>
<path d="M190,220.0 L97.69,338.23 A150,150 0 0,1 54.72,284.80 Z" fill="#7d5a6a" stroke="#e8d5c1" stroke-width="2"/>
<text x="110.5" y="283.9" text-anchor="middle" font-family="Arial" font-size="11" font-weight="bold" fill="#f2e8db">7%</text>
<path d="M190,220.0 L54.72,284.80 A150,150 0 0,1 40.02,217.84 Z" fill="#5b7a99" stroke="#e8d5c1" stroke-width="2"/>
<text x="90.4" y="241.9" text-anchor="middle" font-family="Arial" font-size="11" font-weight="bold" fill="#f2e8db">7%</text>
<path d="M190,220.0 L40.02,217.84 A150,150 0 0,1 49.63,167.12 Z" fill="#a8763e" stroke="#e8d5c1" stroke-width="2"/>
<text x="89.8" y="201.0" text-anchor="middle" font-family="Arial" font-size="11" font-weight="bold" fill="#f2e8db">6%</text>
<path d="M190,220.0 L49.63,167.12 A150,150 0 0,1 70.45,129.40 Z" fill="#6b8f71" stroke="#e8d5c1" stroke-width="2"/>
<text x="100.7" y="170.7" text-anchor="middle" font-family="Arial" font-size="11" font-weight="bold" fill="#f2e8db">5%</text>
<path d="M190,220.0 L70.45,129.40 A150,150 0 0,1 94.32,104.48 Z" fill="#c0654b" stroke="#e8d5c1" stroke-width="2"/>
<path d="M190,220.0 L94.32,104.48 A150,150 0 0,1 115.62,89.74 Z" fill="#8a9a5b" stroke="#e8d5c1" stroke-width="2"/>
<path d="M190,220.0 L115.62,89.74 A150,150 0 0,1 139.15,78.88 Z" fill="#3f6b66" stroke="#e8d5c1" stroke-width="2"/>
<path d="M190,220.0 L139.15,78.88 A150,150 0 0,1 155.72,73.97 Z" fill="#d1a24a" stroke="#e8d5c1" stroke-width="2"/>
<path d="M190,220.0 L155.72,73.97 A150,150 0 0,1 172.75,71.00 Z" fill="#7d5a6a" stroke="#e8d5c1" stroke-width="2"/>
<path d="M190,220.0 L172.75,71.00 A150,150 0 0,1 190.00,70.00 Z" fill="#5b7a99" stroke="#e8d5c1" stroke-width="2"/>
<rect x="400" y="70" width="14" height="14" fill="#c0654b"/>
<text x="420" y="81" font-family="Arial" font-size="12" fill="#3b2a1a">IN (22)</text>
<rect x="400" y="94" width="14" height="14" fill="#8a9a5b"/>
<text x="420" y="105" font-family="Arial" font-size="12" fill="#3b2a1a">AU (18)</text>
<rect x="400" y="118" width="14" height="14" fill="#3f6b66"/>
<text x="420" y="129" font-family="Arial" font-size="12" fill="#3b2a1a">PK (15)</text>
<rect x="400" y="142" width="14" height="14" fill="#d1a24a"/>
<text x="420" y="153" font-family="Arial" font-size="12" fill="#3b2a1a">Others (11)</text>
<rect x="400" y="166" width="14" height="14" fill="#7d5a6a"/>
<text x="420" y="177" font-family="Arial" font-size="12" fill="#3b2a1a">NZ (8)</text>
<rect x="400" y="190" width="14" height="14" fill="#5b7a99"/>
<text x="420" y="201" font-family="Arial" font-size="12" fill="#3b2a1a">BD (8)</text>
<rect x="400" y="214" width="14" height="14" fill="#a8763e"/>
<text x="420" y="225" font-family="Arial" font-size="12" fill="#3b2a1a">SG (6)</text>
<rect x="400" y="238" width="14" height="14" fill="#6b8f71"/>
<text x="420" y="249" font-family="Arial" font-size="12" fill="#3b2a1a">PH (5)</text>
<rect x="400" y="262" width="14" height="14" fill="#c0654b"/>
<text x="420" y="273" font-family="Arial" font-size="12" fill="#3b2a1a">CN (4)</text>
<rect x="400" y="286" width="14" height="14" fill="#8a9a5b"/>
<text x="420" y="297" font-family="Arial" font-size="12" fill="#3b2a1a">FJ (3)</text>
<rect x="400" y="310" width="14" height="14" fill="#3f6b66"/>
<text x="420" y="321" font-family="Arial" font-size="12" fill="#3b2a1a">NR (3)</text>
<rect x="400" y="334" width="14" height="14" fill="#d1a24a"/>
<text x="420" y="345" font-family="Arial" font-size="12" fill="#3b2a1a">TH (2)</text>
<rect x="400" y="358" width="14" height="14" fill="#7d5a6a"/>
<text x="420" y="369" font-family="Arial" font-size="12" fill="#3b2a1a">LK (2)</text>
<rect x="400" y="382" width="14" height="14" fill="#5b7a99"/>
<text x="420" y="393" font-family="Arial" font-size="12" fill="#3b2a1a">JP (2)</text>
</svg>
