<svg viewBox="0 0 720 410" xmlns="http://www.w3.org/2000/svg">
  <rect width="720" height="410" fill="#e8d5c1"/>
<text x="360.0" y="30" text-anchor="middle" font-family="Arial" font-size="18" font-weight="bold" fill="#3b2a1a">APNIC-Region ASPA Adoption by Country</text>
<text x="360.0" y="52" text-anchor="middle" font-family="Arial" font-size="12" fill="#7a6650">(n=110)</text>
<path d="M190,220.0 L190.00,70.00 A150,150 0 0,1 332.66,173.65 Z" fill="#c0654b" stroke="#e8d5c1" stroke-width="2"/>
<text x="250.0" y="137.5" text-anchor="middle" font-family="Arial" font-size="11" font-weight="bold" fill="#f2e8db">20%</text>
<path d="M190,220.0 L332.66,173.65 A150,150 0 0,1 303.36,318.23 Z" fill="#8a9a5b" stroke="#e8d5c1" stroke-width="2"/>
<text x="290.0" y="240.3" text-anchor="middle" font-family="Arial" font-size="11" font-weight="bold" fill="#f2e8db">16%</text>
<path d="M190,220.0 L303.36,318.23 A150,150 0 0,1 190.00,370.00 Z" fill="#3f6b66" stroke="#e8d5c1" stroke-width="2"/>
<text x="232.4" y="312.8" text-anchor="middle" font-family="Arial" font-size="11" font-weight="bold" fill="#f2e8db">14%</text>
<path d="M190,220.0 L190.00,370.00 A150,150 0 0,1 101.83,341.35 Z" fill="#d1a24a" stroke="#e8d5c1" stroke-width="2"/>
<text x="158.5" y="317.0" text-anchor="middle" font-family="Arial" font-size="11" font-weight="bold" fill="#f2e8db">10%</text>
<path d="M190,220.0 L101.83,341.35 A150,150 0 0,1 57.34,290.00 Z" fill="#7d5a6a" stroke="#e8d5c1" stroke-width="2"/>
<text x="112.9" y="286.8" text-anchor="middle" font-family="Arial" font-size="11" font-weight="bold" fill="#f2e8db">7%</text>
<path d="M190,220.0 L57.34,290.00 A150,150 0 0,1 40.06,224.28 Z" fill="#5b7a99" stroke="#e8d5c1" stroke-width="2"/>
<text x="91.4" y="245.9" text-anchor="middle" font-family="Arial" font-size="11" font-weight="bold" fill="#f2e8db">7%</text>
<path d="M190,220.0 L40.06,224.28 A150,150 0 0,1 50.22,165.58 Z" fill="#a8763e" stroke="#e8d5c1" stroke-width="2"/>
<text x="89.5" y="202.6" text-anchor="middle" font-family="Arial" font-size="11" font-weight="bold" fill="#f2e8db">6%</text>
<path d="M190,220.0 L50.22,165.58 A150,150 0 0,1 71.21,128.40 Z" fill="#6b8f71" stroke="#e8d5c1" stroke-width="2"/>
<text x="101.2" y="169.8" text-anchor="middle" font-family="Arial" font-size="11" font-weight="bold" fill="#f2e8db">5%</text>
<path d="M190,220.0 L71.21,128.40 A150,150 0 0,1 95.05,103.88 Z" fill="#c0654b" stroke="#e8d5c1" stroke-width="2"/>
<path d="M190,220.0 L95.05,103.88 A150,150 0 0,1 116.24,89.39 Z" fill="#8a9a5b" stroke="#e8d5c1" stroke-width="2"/>
<path d="M190,220.0 L116.24,89.39 A150,150 0 0,1 139.59,78.72 Z" fill="#3f6b66" stroke="#e8d5c1" stroke-width="2"/>
<path d="M190,220.0 L139.59,78.72 A150,150 0 0,1 156.03,73.90 Z" fill="#d1a24a" stroke="#e8d5c1" stroke-width="2"/>
<path d="M190,220.0 L156.03,73.90 A150,150 0 0,1 172.90,70.98 Z" fill="#7d5a6a" stroke="#e8d5c1" stroke-width="2"/>
<path d="M190,220.0 L172.90,70.98 A150,150 0 0,1 190.00,70.00 Z" fill="#5b7a99" stroke="#e8d5c1" stroke-width="2"/>
<rect x="400" y="70" width="14" height="14" fill="#c0654b"/>
<text x="420" y="81" font-family="Arial" font-size="12" fill="#3b2a1a">IN (22)</text>
<rect x="400" y="94" width="14" height="14" fill="#8a9a5b"/>
<text x="420" y="105" font-family="Arial" font-size="12" fill="#3b2a1a">AU (18)</text>
<rect x="400" y="118" width="14" height="14" fill="#3f6b66"/>
<text x="420" y="129" font-family="Arial" font-size="12" fill="#3b2a1a">PK (15)</text>
<rect x="400" y="142" width="14" height="14" fill="#d1a24a"/>
<text x="420" y="153" font-family="Arial" font-size="12" fill="#3b2a1a">Others (11)</text>
<rect x="400" y="166" width="14" height="14" fill="#7d5a6a"/>
<text x="420" y="177" font-family="Arial" font-size="12" fill="#3b2a1a">NZ (8)</text>
<rect x="400" y="190" width="14" height="14" fill="#5b7a99"/>
<text x="420" y="201" font-family="Arial" font-size="12" fill="#3b2a1a">BD (8)</text>
<rect x="400" y="214" width="14" height="14" fill="#a8763e"/>
<text x="420" y="225" font-family="Arial" font-size="12" fill="#3b2a1a">SG (7)</text>
<rect x="400" y="238" width="14" height="14" fill="#6b8f71"/>
<text x="420" y="249" font-family="Arial" font-size="12" fill="#3b2a1a">PH (5)</text>
<rect x="400" y="262" width="14" height="14" fill="#c0654b"/>
<text x="420" y="273" font-family="Arial" font-size="12" fill="#3b2a1a">CN (4)</text>
<rect x="400" y="286" width="14" height="14" fill="#8a9a5b"/>
<text x="420" y="297" font-family="Arial" font-size="12" fill="#3b2a1a">FJ (3)</text>
<rect x="400" y="310" width="14" height="14" fill="#3f6b66"/>
<text x="420" y="321" font-family="Arial" font-size="12" fill="#3b2a1a">NR (3)</text>
<rect x="400" y="334" width="14" height="14" fill="#d1a24a"/>
<text x="420" y="345" font-family="Arial" font-size="12" fill="#3b2a1a">TH (2)</text>
<rect x="400" y="358" width="14" height="14" fill="#7d5a6a"/>
<text x="420" y="369" font-family="Arial" font-size="12" fill="#3b2a1a">LK (2)</text>
<rect x="400" y="382" width="14" height="14" fill="#5b7a99"/>
<text x="420" y="393" font-family="Arial" font-size="12" fill="#3b2a1a">JP (2)</text>
</svg>
