<svg viewBox="0 0 720 410" xmlns="http://www.w3.org/2000/svg">
  <rect width="720" height="410" fill="#e8d5c1"/>
<text x="360.0" y="30" text-anchor="middle" font-family="Arial" font-size="18" font-weight="bold" fill="#3b2a1a">APNIC-Region ASPA Adoption by Country</text>
<text x="360.0" y="52" text-anchor="middle" font-family="Arial" font-size="12" fill="#7a6650">(n=91)</text>
<path d="M190,220.0 L190.00,70.00 A150,150 0 0,1 337.30,191.69 Z" fill="#c0654b" stroke="#e8d5c1" stroke-width="2"/>
<text x="255.0" y="141.4" text-anchor="middle" font-family="Arial" font-size="11" font-weight="bold" fill="#f2e8db">22%</text>
<path d="M190,220.0 L337.30,191.69 A150,150 0 0,1 255.08,355.15 Z" fill="#8a9a5b" stroke="#e8d5c1" stroke-width="2"/>
<text x="281.1" y="265.8" text-anchor="middle" font-family="Arial" font-size="11" font-weight="bold" fill="#f2e8db">21%</text>
<path d="M190,220.0 L255.08,355.15 A150,150 0 0,1 115.75,350.33 Z" fill="#3f6b66" stroke="#e8d5c1" stroke-width="2"/>
<text x="186.5" y="321.9" text-anchor="middle" font-family="Arial" font-size="11" font-weight="bold" fill="#f2e8db">15%</text>
<path d="M190,220.0 L115.75,350.33 A150,150 0 0,1 53.75,282.74 Z" fill="#d1a24a" stroke="#e8d5c1" stroke-width="2"/>
<text x="114.8" y="288.9" text-anchor="middle" font-family="Arial" font-size="11" font-weight="bold" fill="#f2e8db">10%</text>
<path d="M190,220.0 L53.75,282.74 A150,150 0 0,1 40.56,232.93 Z" fill="#7d5a6a" stroke="#e8d5c1" stroke-width="2"/>
<text x="91.4" y="246.1" text-anchor="middle" font-family="Arial" font-size="11" font-weight="bold" fill="#f2e8db">5%</text>
<path d="M190,220.0 L40.56,232.93 A150,150 0 0,1 42.70,191.69 Z" fill="#5b7a99" stroke="#e8d5c1" stroke-width="2"/>
<text x="88.1" y="214.7" text-anchor="middle" font-family="Arial" font-size="11" font-weight="bold" fill="#f2e8db">4%</text>
<path d="M190,220.0 L42.70,191.69 A150,150 0 0,1 56.00,152.59 Z" fill="#a8763e" stroke="#e8d5c1" stroke-width="2"/>
<text x="93.4" y="187.1" text-anchor="middle" font-family="Arial" font-size="11" font-weight="bold" fill="#f2e8db">4%</text>
<path d="M190,220.0 L56.00,152.59 A150,150 0 0,1 72.73,126.48 Z" fill="#6b8f71" stroke="#e8d5c1" stroke-width="2"/>
<path d="M190,220.0 L72.73,126.48 A150,150 0 0,1 94.47,104.36 Z" fill="#c0654b" stroke="#e8d5c1" stroke-width="2"/>
<path d="M190,220.0 L94.47,104.36 A150,150 0 0,1 120.29,87.18 Z" fill="#8a9a5b" stroke="#e8d5c1" stroke-width="2"/>
<path d="M190,220.0 L120.29,87.18 A150,150 0 0,1 149.10,75.68 Z" fill="#3f6b66" stroke="#e8d5c1" stroke-width="2"/>
<path d="M190,220.0 L149.10,75.68 A150,150 0 0,1 169.35,71.43 Z" fill="#d1a24a" stroke="#e8d5c1" stroke-width="2"/>
<path d="M190,220.0 L169.35,71.43 A150,150 0 0,1 190.00,70.00 Z" fill="#7d5a6a" stroke="#e8d5c1" stroke-width="2"/>
<rect x="400" y="70" width="14" height="14" fill="#c0654b"/>
<text x="420" y="81" font-family="Arial" font-size="12" fill="#3b2a1a">IN (20)</text>
<rect x="400" y="94" width="14" height="14" fill="#8a9a5b"/>
<text x="420" y="105" font-family="Arial" font-size="12" fill="#3b2a1a">AU (19)</text>
<rect x="400" y="118" width="14" height="14" fill="#3f6b66"/>
<text x="420" y="129" font-family="Arial" font-size="12" fill="#3b2a1a">PK (14)</text>
<rect x="400" y="142" width="14" height="14" fill="#d1a24a"/>
<text x="420" y="153" font-family="Arial" font-size="12" fill="#3b2a1a">Others (9)</text>
<rect x="400" y="166" width="14" height="14" fill="#7d5a6a"/>
<text x="420" y="177" font-family="Arial" font-size="12" fill="#3b2a1a">BD (5)</text>
<rect x="400" y="190" width="14" height="14" fill="#5b7a99"/>
<text x="420" y="201" font-family="Arial" font-size="12" fill="#3b2a1a">SG (4)</text>
<rect x="400" y="214" width="14" height="14" fill="#a8763e"/>
<text x="420" y="225" font-family="Arial" font-size="12" fill="#3b2a1a">NZ (4)</text>
<rect x="400" y="238" width="14" height="14" fill="#6b8f71"/>
<text x="420" y="249" font-family="Arial" font-size="12" fill="#3b2a1a">TH (3)</text>
<rect x="400" y="262" width="14" height="14" fill="#c0654b"/>
<text x="420" y="273" font-family="Arial" font-size="12" fill="#3b2a1a">NR (3)</text>
<rect x="400" y="286" width="14" height="14" fill="#8a9a5b"/>
<text x="420" y="297" font-family="Arial" font-size="12" fill="#3b2a1a">PH (3)</text>
<rect x="400" y="310" width="14" height="14" fill="#3f6b66"/>
<text x="420" y="321" font-family="Arial" font-size="12" fill="#3b2a1a">N/A (3)</text>
<rect x="400" y="334" width="14" height="14" fill="#d1a24a"/>
<text x="420" y="345" font-family="Arial" font-size="12" fill="#3b2a1a">LK (2)</text>
<rect x="400" y="358" width="14" height="14" fill="#7d5a6a"/>
<text x="420" y="369" font-family="Arial" font-size="12" fill="#3b2a1a">FJ (2)</text>
</svg>
