<svg viewBox="0 0 720 496" xmlns="http://www.w3.org/2000/svg">
  <rect width="720" height="496" fill="#e8d5c1"/>
<text x="360.0" y="30" text-anchor="middle" font-family="Arial" font-size="18" font-weight="bold" fill="#3b2a1a">APNIC-Region ASPA Adoption by Country</text>
<text x="360.0" y="52" text-anchor="middle" font-family="Arial" font-size="12" fill="#7a6650">(n=220)</text>
<path d="M190,263.0 L190.00,113.00 A150,150 0 0,1 339.94,258.72 Z" fill="#c0654b" stroke="#e8d5c1" stroke-width="2"/>
<text x="261.1" y="189.9" text-anchor="middle" font-family="Arial" font-size="11" font-weight="bold" fill="#f2e8db">25%</text>
<path d="M190,263.0 L339.94,258.72 A150,150 0 0,1 271.10,389.19 Z" fill="#8a9a5b" stroke="#e8d5c1" stroke-width="2"/>
<text x="280.2" y="310.6" text-anchor="middle" font-family="Arial" font-size="11" font-weight="bold" fill="#f2e8db">16%</text>
<path d="M190,263.0 L271.10,389.19 A150,150 0 0,1 190.00,413.00 Z" fill="#3f6b66" stroke="#e8d5c1" stroke-width="2"/>
<text x="218.7" y="360.9" text-anchor="middle" font-family="Arial" font-size="11" font-weight="bold" fill="#f2e8db">9%</text>
<path d="M190,263.0 L190.00,413.00 A150,150 0 0,1 123.82,397.61 Z" fill="#d1a24a" stroke="#e8d5c1" stroke-width="2"/>
<text x="166.9" y="362.3" text-anchor="middle" font-family="Arial" font-size="11" font-weight="bold" fill="#f2e8db">7%</text>
<path d="M190,263.0 L123.82,397.61 A150,150 0 0,1 71.21,354.60 Z" fill="#7d5a6a" stroke="#e8d5c1" stroke-width="2"/>
<text x="125.4" y="342.0" text-anchor="middle" font-family="Arial" font-size="11" font-weight="bold" fill="#f2e8db">7%</text>
<path d="M190,263.0 L71.21,354.60 A150,150 0 0,1 44.93,301.13 Z" fill="#5b7a99" stroke="#e8d5c1" stroke-width="2"/>
<text x="98.5" y="308.0" text-anchor="middle" font-family="Arial" font-size="11" font-weight="bold" fill="#f2e8db">6%</text>
<path d="M190,263.0 L44.93,301.13 A150,150 0 0,1 40.00,263.00 Z" fill="#a8763e" stroke="#e8d5c1" stroke-width="2"/>
<text x="88.8" y="276.1" text-anchor="middle" font-family="Arial" font-size="11" font-weight="bold" fill="#f2e8db">4%</text>
<path d="M190,263.0 L40.00,263.00 A150,150 0 0,1 44.93,224.87 Z" fill="#6b8f71" stroke="#e8d5c1" stroke-width="2"/>
<text x="88.8" y="249.9" text-anchor="middle" font-family="Arial" font-size="11" font-weight="bold" fill="#f2e8db">4%</text>
<path d="M190,263.0 L44.93,224.87 A150,150 0 0,1 57.34,193.00 Z" fill="#c0654b" stroke="#e8d5c1" stroke-width="2"/>
<path d="M190,263.0 L57.34,193.00 A150,150 0 0,1 76.64,164.77 Z" fill="#8a9a5b" stroke="#e8d5c1" stroke-width="2"/>
<path d="M190,263.0 L76.64,164.77 A150,150 0 0,1 98.40,144.21 Z" fill="#3f6b66" stroke="#e8d5c1" stroke-width="2"/>
<path d="M190,263.0 L98.40,144.21 A150,150 0 0,1 116.24,132.39 Z" fill="#d1a24a" stroke="#e8d5c1" stroke-width="2"/>
<path d="M190,263.0 L116.24,132.39 A150,150 0 0,1 127.69,126.56 Z" fill="#7d5a6a" stroke="#e8d5c1" stroke-width="2"/>
<path d="M190,263.0 L127.69,126.56 A150,150 0 0,1 139.59,121.72 Z" fill="#5b7a99" stroke="#e8d5c1" stroke-width="2"/>
<path d="M190,263.0 L139.59,121.72 A150,150 0 0,1 151.87,117.93 Z" fill="#a8763e" stroke="#e8d5c1" stroke-width="2"/>
<path d="M190,263.0 L151.87,117.93 A150,150 0 0,1 164.42,115.20 Z" fill="#6b8f71" stroke="#e8d5c1" stroke-width="2"/>
<path d="M190,263.0 L164.42,115.20 A150,150 0 0,1 172.90,113.98 Z" fill="#c0654b" stroke="#e8d5c1" stroke-width="2"/>
<path d="M190,263.0 L172.90,113.98 A150,150 0 0,1 181.44,113.24 Z" fill="#8a9a5b" stroke="#e8d5c1" stroke-width="2"/>
<path d="M190,263.0 L181.44,113.24 A150,150 0 0,1 190.00,113.00 Z" fill="#3f6b66" stroke="#e8d5c1" stroke-width="2"/>
<rect x="400" y="70" width="14" height="14" fill="#c0654b"/>
<text x="420" y="81" font-family="Arial" font-size="12" fill="#3b2a1a">IN (54)</text>
<rect x="400" y="94" width="14" height="14" fill="#8a9a5b"/>
<text x="420" y="105" font-family="Arial" font-size="12" fill="#3b2a1a">AU (36)</text>
<rect x="400" y="118" width="14" height="14" fill="#3f6b66"/>
<text x="420" y="129" font-family="Arial" font-size="12" fill="#3b2a1a">PK (20)</text>
<rect x="400" y="142" width="14" height="14" fill="#d1a24a"/>
<text x="420" y="153" font-family="Arial" font-size="12" fill="#3b2a1a">NP (16)</text>
<rect x="400" y="166" width="14" height="14" fill="#7d5a6a"/>
<text x="420" y="177" font-family="Arial" font-size="12" fill="#3b2a1a">BD (16)</text>
<rect x="400" y="190" width="14" height="14" fill="#5b7a99"/>
<text x="420" y="201" font-family="Arial" font-size="12" fill="#3b2a1a">NZ (14)</text>
<rect x="400" y="214" width="14" height="14" fill="#a8763e"/>
<text x="420" y="225" font-family="Arial" font-size="12" fill="#3b2a1a">SG (9)</text>
<rect x="400" y="238" width="14" height="14" fill="#6b8f71"/>
<text x="420" y="249" font-family="Arial" font-size="12" fill="#3b2a1a">BT (9)</text>
<rect x="400" y="262" width="14" height="14" fill="#c0654b"/>
<text x="420" y="273" font-family="Arial" font-size="12" fill="#3b2a1a">PH (8)</text>
<rect x="400" y="286" width="14" height="14" fill="#8a9a5b"/>
<text x="420" y="297" font-family="Arial" font-size="12" fill="#3b2a1a">Others (8)</text>
<rect x="400" y="310" width="14" height="14" fill="#3f6b66"/>
<text x="420" y="321" font-family="Arial" font-size="12" fill="#3b2a1a">CN (7)</text>
<rect x="400" y="334" width="14" height="14" fill="#d1a24a"/>
<text x="420" y="345" font-family="Arial" font-size="12" fill="#3b2a1a">TH (5)</text>
<rect x="400" y="358" width="14" height="14" fill="#7d5a6a"/>
<text x="420" y="369" font-family="Arial" font-size="12" fill="#3b2a1a">HK (3)</text>
<rect x="400" y="382" width="14" height="14" fill="#5b7a99"/>
<text x="420" y="393" font-family="Arial" font-size="12" fill="#3b2a1a">FJ (3)</text>
<rect x="400" y="406" width="14" height="14" fill="#a8763e"/>
<text x="420" y="417" font-family="Arial" font-size="12" fill="#3b2a1a">NR (3)</text>
<rect x="400" y="430" width="14" height="14" fill="#6b8f71"/>
<text x="420" y="441" font-family="Arial" font-size="12" fill="#3b2a1a">MM (3)</text>
<rect x="400" y="454" width="14" height="14" fill="#c0654b"/>
<text x="420" y="465" font-family="Arial" font-size="12" fill="#3b2a1a">LK (2)</text>
<rect x="400" y="478" width="14" height="14" fill="#8a9a5b"/>
<text x="420" y="489" font-family="Arial" font-size="12" fill="#3b2a1a">TO (2)</text>
<rect x="400" y="502" width="14" height="14" fill="#3f6b66"/>
<text x="420" y="513" font-family="Arial" font-size="12" fill="#3b2a1a">JP (2)</text>
</svg>
