<svg viewBox="0 0 640 560" xmlns="http://www.w3.org/2000/svg">
  <rect width="640" height="560" fill="#e8d5c1"/>
<text x="320.0" y="30" text-anchor="middle" font-family="Arial" font-size="18" font-weight="bold" fill="#3b2a1a">APNIC-Region ASPA Adoption by Country</text>
<text x="320.0" y="52" text-anchor="middle" font-family="Arial" font-size="12" fill="#7a6650">(n=97)</text>
<path d="M320.0,260 L320.00,80.00 A180,180 0 0,1 485.45,189.10 Z" fill="#c0654b" stroke="#e8d5c1" stroke-width="2"/>
<text x="387.4" y="157.8" text-anchor="middle" font-family="Arial" font-size="11" font-weight="bold" fill="#f2e8db">19%</text>
<path d="M320.0,260 L485.45,189.10 A180,180 0 0,1 471.85,356.65 Z" fill="#8a9a5b" stroke="#e8d5c1" stroke-width="2"/>
<text x="442.0" y="269.9" text-anchor="middle" font-family="Arial" font-size="11" font-weight="bold" fill="#f2e8db">15%</text>
<path d="M320.0,260 L471.85,356.65 A180,180 0 0,1 349.02,437.65 Z" fill="#3f6b66" stroke="#e8d5c1" stroke-width="2"/>
<text x="387.4" y="362.2" text-anchor="middle" font-family="Arial" font-size="11" font-weight="bold" fill="#f2e8db">13%</text>
<path d="M320.0,260 L349.02,437.65 A180,180 0 0,1 246.43,424.28 Z" fill="#d1a24a" stroke="#e8d5c1" stroke-width="2"/>
<text x="304.2" y="381.4" text-anchor="middle" font-family="Arial" font-size="11" font-weight="bold" fill="#f2e8db">9%</text>
<path d="M320.0,260 L246.43,424.28 A180,180 0 0,1 174.72,366.27 Z" fill="#7d5a6a" stroke="#e8d5c1" stroke-width="2"/>
<text x="243.0" y="355.2" text-anchor="middle" font-family="Arial" font-size="11" font-weight="bold" fill="#f2e8db">8%</text>
<path d="M320.0,260 L174.72,366.27 A180,180 0 0,1 141.16,280.36 Z" fill="#5b7a99" stroke="#e8d5c1" stroke-width="2"/>
<text x="206.0" y="304.5" text-anchor="middle" font-family="Arial" font-size="11" font-weight="bold" fill="#f2e8db">8%</text>
<path d="M320.0,260 L141.16,280.36 A180,180 0 0,1 143.97,222.39 Z" fill="#a8763e" stroke="#e8d5c1" stroke-width="2"/>
<text x="197.7" y="254.1" text-anchor="middle" font-family="Arial" font-size="11" font-weight="bold" fill="#f2e8db">5%</text>
<path d="M320.0,260 L143.97,222.39 A180,180 0 0,1 159.49,178.54 Z" fill="#6b8f71" stroke="#e8d5c1" stroke-width="2"/>
<text x="204.6" y="219.2" text-anchor="middle" font-family="Arial" font-size="11" font-weight="bold" fill="#f2e8db">4%</text>
<path d="M320.0,260 L159.49,178.54 A180,180 0 0,1 185.72,140.14 Z" fill="#c0654b" stroke="#e8d5c1" stroke-width="2"/>
<text x="218.9" y="191.0" text-anchor="middle" font-family="Arial" font-size="11" font-weight="bold" fill="#f2e8db">4%</text>
<path d="M320.0,260 L185.72,140.14 A180,180 0 0,1 211.39,116.46 Z" fill="#8a9a5b" stroke="#e8d5c1" stroke-width="2"/>
<path d="M320.0,260 L211.39,116.46 A180,180 0 0,1 241.15,98.19 Z" fill="#3f6b66" stroke="#e8d5c1" stroke-width="2"/>
<path d="M320.0,260 L241.15,98.19 A180,180 0 0,1 273.88,86.01 Z" fill="#d1a24a" stroke="#e8d5c1" stroke-width="2"/>
<path d="M320.0,260 L273.88,86.01 A180,180 0 0,1 296.75,81.51 Z" fill="#7d5a6a" stroke="#e8d5c1" stroke-width="2"/>
<path d="M320.0,260 L296.75,81.51 A180,180 0 0,1 320.00,80.00 Z" fill="#5b7a99" stroke="#e8d5c1" stroke-width="2"/>
<rect x="40" y="242" width="14" height="14" fill="#c0654b"/>
<text x="60" y="253" font-family="Arial" font-size="12" fill="#3b2a1a">AU (18)</text>
<rect x="40" y="264" width="14" height="14" fill="#8a9a5b"/>
<text x="60" y="275" font-family="Arial" font-size="12" fill="#3b2a1a">PK (15)</text>
<rect x="40" y="286" width="14" height="14" fill="#3f6b66"/>
<text x="60" y="297" font-family="Arial" font-size="12" fill="#3b2a1a">IN (13)</text>
<rect x="40" y="308" width="14" height="14" fill="#d1a24a"/>
<text x="60" y="319" font-family="Arial" font-size="12" fill="#3b2a1a">Others (9)</text>
<rect x="40" y="330" width="14" height="14" fill="#7d5a6a"/>
<text x="60" y="341" font-family="Arial" font-size="12" fill="#3b2a1a">NZ (8)</text>
<rect x="40" y="352" width="14" height="14" fill="#5b7a99"/>
<text x="60" y="363" font-family="Arial" font-size="12" fill="#3b2a1a">BD (8)</text>
<rect x="40" y="374" width="14" height="14" fill="#a8763e"/>
<text x="60" y="385" font-family="Arial" font-size="12" fill="#3b2a1a">SG (5)</text>
<rect x="40" y="396" width="14" height="14" fill="#6b8f71"/>
<text x="60" y="407" font-family="Arial" font-size="12" fill="#3b2a1a">PH (4)</text>
<rect x="40" y="418" width="14" height="14" fill="#c0654b"/>
<text x="60" y="429" font-family="Arial" font-size="12" fill="#3b2a1a">CN (4)</text>
<rect x="40" y="440" width="14" height="14" fill="#8a9a5b"/>
<text x="60" y="451" font-family="Arial" font-size="12" fill="#3b2a1a">FJ (3)</text>
<rect x="40" y="462" width="14" height="14" fill="#3f6b66"/>
<text x="60" y="473" font-family="Arial" font-size="12" fill="#3b2a1a">JP (3)</text>
<rect x="40" y="484" width="14" height="14" fill="#d1a24a"/>
<text x="60" y="495" font-family="Arial" font-size="12" fill="#3b2a1a">NR (3)</text>
<rect x="40" y="506" width="14" height="14" fill="#7d5a6a"/>
<text x="60" y="517" font-family="Arial" font-size="12" fill="#3b2a1a">TH (2)</text>
<rect x="40" y="528" width="14" height="14" fill="#5b7a99"/>
<text x="60" y="539" font-family="Arial" font-size="12" fill="#3b2a1a">LK (2)</text>
</svg>
