<svg viewBox="0 0 720 712" xmlns="http://www.w3.org/2000/svg">
  <rect width="720" height="712" fill="#e8d5c1"/>
<text x="360.0" y="30" text-anchor="middle" font-family="Arial" font-size="18" font-weight="bold" fill="#3b2a1a">APNIC-Region ASPA Adoption by Country</text>
<text x="360.0" y="52" text-anchor="middle" font-family="Arial" font-size="12" fill="#7a6650">(n=458)</text>
<path d="M190,371.0 L190.00,221.00 A150,150 0 0,1 326.21,308.18 Z" fill="#c0654b" stroke="#e8d5c1" stroke-width="2"/>
<text x="245.0" y="285.1" text-anchor="middle" font-family="Arial" font-size="11" font-weight="bold" fill="#f2e8db">18%</text>
<path d="M190,371.0 L326.21,308.18 A150,150 0 0,1 321.58,443.01 Z" fill="#8a9a5b" stroke="#e8d5c1" stroke-width="2"/>
<text x="291.9" y="374.5" text-anchor="middle" font-family="Arial" font-size="11" font-weight="bold" fill="#f2e8db">15%</text>
<path d="M190,371.0 L321.58,443.01 A150,150 0 0,1 210.51,519.59 Z" fill="#3f6b66" stroke="#e8d5c1" stroke-width="2"/>
<text x="247.9" y="455.0" text-anchor="middle" font-family="Arial" font-size="11" font-weight="bold" fill="#f2e8db">15%</text>
<path d="M190,371.0 L210.51,519.59 A150,150 0 0,1 139.56,512.26 Z" fill="#d1a24a" stroke="#e8d5c1" stroke-width="2"/>
<text x="179.5" y="472.5" text-anchor="middle" font-family="Arial" font-size="11" font-weight="bold" fill="#f2e8db">8%</text>
<path d="M190,371.0 L139.56,512.26 A150,150 0 0,1 85.77,478.87 Z" fill="#7d5a6a" stroke="#e8d5c1" stroke-width="2"/>
<text x="136.2" y="457.7" text-anchor="middle" font-family="Arial" font-size="11" font-weight="bold" fill="#f2e8db">7%</text>
<path d="M190,371.0 L85.77,478.87 A150,150 0 0,1 52.12,430.06 Z" fill="#5b7a99" stroke="#e8d5c1" stroke-width="2"/>
<text x="106.0" y="428.9" text-anchor="middle" font-family="Arial" font-size="11" font-weight="bold" fill="#f2e8db">6%</text>
<path d="M190,371.0 L52.12,430.06 A150,150 0 0,1 40.03,374.09 Z" fill="#a8763e" stroke="#e8d5c1" stroke-width="2"/>
<text x="90.3" y="392.5" text-anchor="middle" font-family="Arial" font-size="11" font-weight="bold" fill="#f2e8db">6%</text>
<path d="M190,371.0 L40.03,374.09 A150,150 0 0,1 43.83,337.34 Z" fill="#6b8f71" stroke="#e8d5c1" stroke-width="2"/>
<path d="M190,371.0 L43.83,337.34 A150,150 0 0,1 52.94,310.05 Z" fill="#c0654b" stroke="#e8d5c1" stroke-width="2"/>
<path d="M190,371.0 L52.94,310.05 A150,150 0 0,1 64.78,288.41 Z" fill="#8a9a5b" stroke="#e8d5c1" stroke-width="2"/>
<path d="M190,371.0 L64.78,288.41 A150,150 0 0,1 74.58,275.20 Z" fill="#3f6b66" stroke="#e8d5c1" stroke-width="2"/>
<path d="M190,371.0 L74.58,275.20 A150,150 0 0,1 85.77,263.13 Z" fill="#d1a24a" stroke="#e8d5c1" stroke-width="2"/>
<path d="M190,371.0 L85.77,263.13 A150,150 0 0,1 96.59,253.63 Z" fill="#7d5a6a" stroke="#e8d5c1" stroke-width="2"/>
<path d="M190,371.0 L96.59,253.63 A150,150 0 0,1 106.56,246.35 Z" fill="#5b7a99" stroke="#e8d5c1" stroke-width="2"/>
<path d="M190,371.0 L106.56,246.35 A150,150 0 0,1 117.09,239.91 Z" fill="#a8763e" stroke="#e8d5c1" stroke-width="2"/>
<path d="M190,371.0 L117.09,239.91 A150,150 0 0,1 126.24,235.22 Z" fill="#6b8f71" stroke="#e8d5c1" stroke-width="2"/>
<path d="M190,371.0 L126.24,235.22 A150,150 0 0,1 133.79,231.93 Z" fill="#c0654b" stroke="#e8d5c1" stroke-width="2"/>
<path d="M190,371.0 L133.79,231.93 A150,150 0 0,1 141.50,229.06 Z" fill="#8a9a5b" stroke="#e8d5c1" stroke-width="2"/>
<path d="M190,371.0 L141.50,229.06 A150,150 0 0,1 149.36,226.61 Z" fill="#3f6b66" stroke="#e8d5c1" stroke-width="2"/>
<path d="M190,371.0 L149.36,226.61 A150,150 0 0,1 155.33,225.06 Z" fill="#d1a24a" stroke="#e8d5c1" stroke-width="2"/>
<path d="M190,371.0 L155.33,225.06 A150,150 0 0,1 161.37,223.76 Z" fill="#7d5a6a" stroke="#e8d5c1" stroke-width="2"/>
<path d="M190,371.0 L161.37,223.76 A150,150 0 0,1 165.42,223.03 Z" fill="#5b7a99" stroke="#e8d5c1" stroke-width="2"/>
<path d="M190,371.0 L165.42,223.03 A150,150 0 0,1 169.49,222.41 Z" fill="#a8763e" stroke="#e8d5c1" stroke-width="2"/>
<path d="M190,371.0 L169.49,222.41 A150,150 0 0,1 173.57,221.90 Z" fill="#6b8f71" stroke="#e8d5c1" stroke-width="2"/>
<path d="M190,371.0 L173.57,221.90 A150,150 0 0,1 177.67,221.51 Z" fill="#c0654b" stroke="#e8d5c1" stroke-width="2"/>
<path d="M190,371.0 L177.67,221.51 A150,150 0 0,1 181.77,221.23 Z" fill="#8a9a5b" stroke="#e8d5c1" stroke-width="2"/>
<path d="M190,371.0 L181.77,221.23 A150,150 0 0,1 185.88,221.06 Z" fill="#3f6b66" stroke="#e8d5c1" stroke-width="2"/>
<path d="M190,371.0 L185.88,221.06 A150,150 0 0,1 190.00,221.00 Z" fill="#d1a24a" stroke="#e8d5c1" stroke-width="2"/>
<rect x="400" y="70" width="14" height="14" fill="#c0654b"/>
<text x="420" y="81" font-family="Arial" font-size="12" fill="#3b2a1a">AU (83)</text>
<rect x="400" y="94" width="14" height="14" fill="#8a9a5b"/>
<text x="420" y="105" font-family="Arial" font-size="12" fill="#3b2a1a">IN (68)</text>
<rect x="400" y="118" width="14" height="14" fill="#3f6b66"/>
<text x="420" y="129" font-family="Arial" font-size="12" fill="#3b2a1a">BD (68)</text>
<rect x="400" y="142" width="14" height="14" fill="#d1a24a"/>
<text x="420" y="153" font-family="Arial" font-size="12" fill="#3b2a1a">PH (35)</text>
<rect x="400" y="166" width="14" height="14" fill="#7d5a6a"/>
<text x="420" y="177" font-family="Arial" font-size="12" fill="#3b2a1a">PK (31)</text>
<rect x="400" y="190" width="14" height="14" fill="#5b7a99"/>
<text x="420" y="201" font-family="Arial" font-size="12" fill="#3b2a1a">NP (29)</text>
<rect x="400" y="214" width="14" height="14" fill="#a8763e"/>
<text x="420" y="225" font-family="Arial" font-size="12" fill="#3b2a1a">NZ (28)</text>
<rect x="400" y="238" width="14" height="14" fill="#6b8f71"/>
<text x="420" y="249" font-family="Arial" font-size="12" fill="#3b2a1a">SG (18)</text>
<rect x="400" y="262" width="14" height="14" fill="#c0654b"/>
<text x="420" y="273" font-family="Arial" font-size="12" fill="#3b2a1a">BT (14)</text>
<rect x="400" y="286" width="14" height="14" fill="#8a9a5b"/>
<text x="420" y="297" font-family="Arial" font-size="12" fill="#3b2a1a">TH (12)</text>
<rect x="400" y="310" width="14" height="14" fill="#3f6b66"/>
<text x="420" y="321" font-family="Arial" font-size="12" fill="#3b2a1a">HK (8)</text>
<rect x="400" y="334" width="14" height="14" fill="#d1a24a"/>
<text x="420" y="345" font-family="Arial" font-size="12" fill="#3b2a1a">MM (8)</text>
<rect x="400" y="358" width="14" height="14" fill="#7d5a6a"/>
<text x="420" y="369" font-family="Arial" font-size="12" fill="#3b2a1a">CN (7)</text>
<rect x="400" y="382" width="14" height="14" fill="#5b7a99"/>
<text x="420" y="393" font-family="Arial" font-size="12" fill="#3b2a1a">JP (6)</text>
<rect x="400" y="406" width="14" height="14" fill="#a8763e"/>
<text x="420" y="417" font-family="Arial" font-size="12" fill="#3b2a1a">Others (6)</text>
<rect x="400" y="430" width="14" height="14" fill="#6b8f71"/>
<text x="420" y="441" font-family="Arial" font-size="12" fill="#3b2a1a">ID (5)</text>
<rect x="400" y="454" width="14" height="14" fill="#c0654b"/>
<text x="420" y="465" font-family="Arial" font-size="12" fill="#3b2a1a">FJ (4)</text>
<rect x="400" y="478" width="14" height="14" fill="#8a9a5b"/>
<text x="420" y="489" font-family="Arial" font-size="12" fill="#3b2a1a">PG (4)</text>
<rect x="400" y="502" width="14" height="14" fill="#3f6b66"/>
<text x="420" y="513" font-family="Arial" font-size="12" fill="#3b2a1a">MY (4)</text>
<rect x="400" y="526" width="14" height="14" fill="#d1a24a"/>
<text x="420" y="537" font-family="Arial" font-size="12" fill="#3b2a1a">TO (3)</text>
<rect x="400" y="550" width="14" height="14" fill="#7d5a6a"/>
<text x="420" y="561" font-family="Arial" font-size="12" fill="#3b2a1a">NR (3)</text>
<rect x="400" y="574" width="14" height="14" fill="#5b7a99"/>
<text x="420" y="585" font-family="Arial" font-size="12" fill="#3b2a1a">LK (2)</text>
<rect x="400" y="598" width="14" height="14" fill="#a8763e"/>
<text x="420" y="609" font-family="Arial" font-size="12" fill="#3b2a1a">LA (2)</text>
<rect x="400" y="622" width="14" height="14" fill="#6b8f71"/>
<text x="420" y="633" font-family="Arial" font-size="12" fill="#3b2a1a">TL (2)</text>
<rect x="400" y="646" width="14" height="14" fill="#c0654b"/>
<text x="420" y="657" font-family="Arial" font-size="12" fill="#3b2a1a">WS (2)</text>
<rect x="400" y="670" width="14" height="14" fill="#8a9a5b"/>
<text x="420" y="681" font-family="Arial" font-size="12" fill="#3b2a1a">US (2)</text>
<rect x="400" y="694" width="14" height="14" fill="#3f6b66"/>
<text x="420" y="705" font-family="Arial" font-size="12" fill="#3b2a1a">AF (2)</text>
<rect x="400" y="718" width="14" height="14" fill="#d1a24a"/>
<text x="420" y="729" font-family="Arial" font-size="12" fill="#3b2a1a">KH (2)</text>
</svg>
