<svg viewBox="0 0 720 410" xmlns="http://www.w3.org/2000/svg">
  <rect width="720" height="410" fill="#e8d5c1"/>
<text x="360.0" y="30" text-anchor="middle" font-family="Arial" font-size="18" font-weight="bold" fill="#3b2a1a">APNIC-Region ASPA Adoption by Country</text>
<text x="360.0" y="52" text-anchor="middle" font-family="Arial" font-size="12" fill="#7a6650">(n=107)</text>
<path d="M190,220.0 L190.00,70.00 A150,150 0 0,1 331.53,170.31 Z" fill="#c0654b" stroke="#e8d5c1" stroke-width="2"/>
<text x="249.0" y="136.8" text-anchor="middle" font-family="Arial" font-size="11" font-weight="bold" fill="#f2e8db">20%</text>
<path d="M190,220.0 L331.53,170.31 A150,150 0 0,1 302.84,318.83 Z" fill="#8a9a5b" stroke="#e8d5c1" stroke-width="2"/>
<text x="290.1" y="239.3" text-anchor="middle" font-family="Arial" font-size="11" font-weight="bold" fill="#f2e8db">17%</text>
<path d="M190,220.0 L302.84,318.83 A150,150 0 0,1 185.60,369.94 Z" fill="#3f6b66" stroke="#e8d5c1" stroke-width="2"/>
<text x="230.8" y="313.5" text-anchor="middle" font-family="Arial" font-size="11" font-weight="bold" fill="#f2e8db">14%</text>
<path d="M190,220.0 L185.60,369.94 A150,150 0 0,1 103.26,342.38 Z" fill="#d1a24a" stroke="#e8d5c1" stroke-width="2"/>
<text x="157.6" y="316.7" text-anchor="middle" font-family="Arial" font-size="11" font-weight="bold" fill="#f2e8db">9%</text>
<path d="M190,220.0 L103.26,342.38 A150,150 0 0,1 57.26,289.86 Z" fill="#7d5a6a" stroke="#e8d5c1" stroke-width="2"/>
<text x="113.3" y="287.2" text-anchor="middle" font-family="Arial" font-size="11" font-weight="bold" fill="#f2e8db">7%</text>
<path d="M190,220.0 L57.26,289.86 A150,150 0 0,1 40.02,222.20 Z" fill="#5b7a99" stroke="#e8d5c1" stroke-width="2"/>
<text x="91.2" y="245.2" text-anchor="middle" font-family="Arial" font-size="11" font-weight="bold" fill="#f2e8db">7%</text>
<path d="M190,220.0 L40.02,222.20 A150,150 0 0,1 45.80,178.70 Z" fill="#a8763e" stroke="#e8d5c1" stroke-width="2"/>
<text x="88.9" y="206.6" text-anchor="middle" font-family="Arial" font-size="11" font-weight="bold" fill="#f2e8db">5%</text>
<path d="M190,220.0 L45.80,178.70 A150,150 0 0,1 63.92,138.74 Z" fill="#6b8f71" stroke="#e8d5c1" stroke-width="2"/>
<text x="97.1" y="177.9" text-anchor="middle" font-family="Arial" font-size="11" font-weight="bold" fill="#f2e8db">5%</text>
<path d="M190,220.0 L63.92,138.74 A150,150 0 0,1 86.30,111.62 Z" fill="#c0654b" stroke="#e8d5c1" stroke-width="2"/>
<path d="M190,220.0 L86.30,111.62 A150,150 0 0,1 106.89,95.13 Z" fill="#8a9a5b" stroke="#e8d5c1" stroke-width="2"/>
<path d="M190,220.0 L106.89,95.13 A150,150 0 0,1 130.06,82.49 Z" fill="#3f6b66" stroke="#e8d5c1" stroke-width="2"/>
<path d="M190,220.0 L130.06,82.49 A150,150 0 0,1 155.09,74.12 Z" fill="#d1a24a" stroke="#e8d5c1" stroke-width="2"/>
<path d="M190,220.0 L155.09,74.12 A150,150 0 0,1 172.42,71.03 Z" fill="#7d5a6a" stroke="#e8d5c1" stroke-width="2"/>
<path d="M190,220.0 L172.42,71.03 A150,150 0 0,1 190.00,70.00 Z" fill="#5b7a99" stroke="#e8d5c1" stroke-width="2"/>
<rect x="400" y="70" width="14" height="14" fill="#c0654b"/>
<text x="420" y="81" font-family="Arial" font-size="12" fill="#3b2a1a">IN (21)</text>
<rect x="400" y="94" width="14" height="14" fill="#8a9a5b"/>
<text x="420" y="105" font-family="Arial" font-size="12" fill="#3b2a1a">AU (18)</text>
<rect x="400" y="118" width="14" height="14" fill="#3f6b66"/>
<text x="420" y="129" font-family="Arial" font-size="12" fill="#3b2a1a">PK (15)</text>
<rect x="400" y="142" width="14" height="14" fill="#d1a24a"/>
<text x="420" y="153" font-family="Arial" font-size="12" fill="#3b2a1a">Others (10)</text>
<rect x="400" y="166" width="14" height="14" fill="#7d5a6a"/>
<text x="420" y="177" font-family="Arial" font-size="12" fill="#3b2a1a">NZ (8)</text>
<rect x="400" y="190" width="14" height="14" fill="#5b7a99"/>
<text x="420" y="201" font-family="Arial" font-size="12" fill="#3b2a1a">BD (8)</text>
<rect x="400" y="214" width="14" height="14" fill="#a8763e"/>
<text x="420" y="225" font-family="Arial" font-size="12" fill="#3b2a1a">SG (5)</text>
<rect x="400" y="238" width="14" height="14" fill="#6b8f71"/>
<text x="420" y="249" font-family="Arial" font-size="12" fill="#3b2a1a">PH (5)</text>
<rect x="400" y="262" width="14" height="14" fill="#c0654b"/>
<text x="420" y="273" font-family="Arial" font-size="12" fill="#3b2a1a">CN (4)</text>
<rect x="400" y="286" width="14" height="14" fill="#8a9a5b"/>
<text x="420" y="297" font-family="Arial" font-size="12" fill="#3b2a1a">FJ (3)</text>
<rect x="400" y="310" width="14" height="14" fill="#3f6b66"/>
<text x="420" y="321" font-family="Arial" font-size="12" fill="#3b2a1a">JP (3)</text>
<rect x="400" y="334" width="14" height="14" fill="#d1a24a"/>
<text x="420" y="345" font-family="Arial" font-size="12" fill="#3b2a1a">NR (3)</text>
<rect x="400" y="358" width="14" height="14" fill="#7d5a6a"/>
<text x="420" y="369" font-family="Arial" font-size="12" fill="#3b2a1a">TH (2)</text>
<rect x="400" y="382" width="14" height="14" fill="#5b7a99"/>
<text x="420" y="393" font-family="Arial" font-size="12" fill="#3b2a1a">LK (2)</text>
</svg>
