<svg viewBox="0 0 720 424" xmlns="http://www.w3.org/2000/svg">
  <rect width="720" height="424" fill="#e8d5c1"/>
<text x="360.0" y="30" text-anchor="middle" font-family="Arial" font-size="18" font-weight="bold" fill="#3b2a1a">APNIC-Region ASPA Adoption by Country</text>
<text x="360.0" y="52" text-anchor="middle" font-family="Arial" font-size="12" fill="#7a6650">(n=159)</text>
<path d="M190,227.0 L190.00,77.00 A150,150 0 0,1 339.99,228.48 Z" fill="#c0654b" stroke="#e8d5c1" stroke-width="2"/>
<text x="262.5" y="155.2" text-anchor="middle" font-family="Arial" font-size="11" font-weight="bold" fill="#f2e8db">25%</text>
<path d="M190,227.0 L339.99,228.48 A150,150 0 0,1 266.28,356.16 Z" fill="#8a9a5b" stroke="#e8d5c1" stroke-width="2"/>
<text x="278.3" y="278.0" text-anchor="middle" font-family="Arial" font-size="11" font-weight="bold" fill="#f2e8db">16%</text>
<path d="M190,227.0 L266.28,356.16 A150,150 0 0,1 169.32,375.57 Z" fill="#3f6b66" stroke="#e8d5c1" stroke-width="2"/>
<text x="210.0" y="327.0" text-anchor="middle" font-family="Arial" font-size="11" font-weight="bold" fill="#f2e8db">11%</text>
<path d="M190,227.0 L169.32,375.57 A150,150 0 0,1 108.68,353.04 Z" fill="#d1a24a" stroke="#e8d5c1" stroke-width="2"/>
<text x="154.5" y="322.6" text-anchor="middle" font-family="Arial" font-size="11" font-weight="bold" fill="#f2e8db">7%</text>
<path d="M190,227.0 L108.68,353.04 A150,150 0 0,1 66.42,312.02 Z" fill="#7d5a6a" stroke="#e8d5c1" stroke-width="2"/>
<text x="119.0" y="300.2" text-anchor="middle" font-family="Arial" font-size="11" font-weight="bold" fill="#f2e8db">6%</text>
<path d="M190,227.0 L66.42,312.02 A150,150 0 0,1 46.11,269.39 Z" fill="#5b7a99" stroke="#e8d5c1" stroke-width="2"/>
<text x="97.9" y="270.9" text-anchor="middle" font-family="Arial" font-size="11" font-weight="bold" fill="#f2e8db">5%</text>
<path d="M190,227.0 L46.11,269.39 A150,150 0 0,1 40.07,222.56 Z" fill="#a8763e" stroke="#e8d5c1" stroke-width="2"/>
<text x="88.8" y="240.1" text-anchor="middle" font-family="Arial" font-size="11" font-weight="bold" fill="#f2e8db">5%</text>
<path d="M190,227.0 L40.07,222.56 A150,150 0 0,1 48.88,176.16 Z" fill="#6b8f71" stroke="#e8d5c1" stroke-width="2"/>
<text x="89.8" y="208.0" text-anchor="middle" font-family="Arial" font-size="11" font-weight="bold" fill="#f2e8db">5%</text>
<path d="M190,227.0 L48.88,176.16 A150,150 0 0,1 68.13,139.55 Z" fill="#c0654b" stroke="#e8d5c1" stroke-width="2"/>
<text x="99.7" y="179.5" text-anchor="middle" font-family="Arial" font-size="11" font-weight="bold" fill="#f2e8db">4%</text>
<path d="M190,227.0 L68.13,139.55 A150,150 0 0,1 96.64,109.59 Z" fill="#8a9a5b" stroke="#e8d5c1" stroke-width="2"/>
<text x="116.1" y="156.7" text-anchor="middle" font-family="Arial" font-size="11" font-weight="bold" fill="#f2e8db">4%</text>
<path d="M190,227.0 L96.64,109.59 A150,150 0 0,1 116.29,96.36 Z" fill="#3f6b66" stroke="#e8d5c1" stroke-width="2"/>
<path d="M190,227.0 L116.29,96.36 A150,150 0 0,1 132.26,88.56 Z" fill="#d1a24a" stroke="#e8d5c1" stroke-width="2"/>
<path d="M190,227.0 L132.26,88.56 A150,150 0 0,1 149.03,82.70 Z" fill="#7d5a6a" stroke="#e8d5c1" stroke-width="2"/>
<path d="M190,227.0 L149.03,82.70 A150,150 0 0,1 166.39,78.87 Z" fill="#5b7a99" stroke="#e8d5c1" stroke-width="2"/>
<path d="M190,227.0 L166.39,78.87 A150,150 0 0,1 178.16,77.47 Z" fill="#a8763e" stroke="#e8d5c1" stroke-width="2"/>
<path d="M190,227.0 L178.16,77.47 A150,150 0 0,1 190.00,77.00 Z" fill="#6b8f71" stroke="#e8d5c1" stroke-width="2"/>
<rect x="400" y="70" width="14" height="14" fill="#c0654b"/>
<text x="420" y="81" font-family="Arial" font-size="12" fill="#3b2a1a">IN (40)</text>
<rect x="400" y="94" width="14" height="14" fill="#8a9a5b"/>
<text x="420" y="105" font-family="Arial" font-size="12" fill="#3b2a1a">AU (26)</text>
<rect x="400" y="118" width="14" height="14" fill="#3f6b66"/>
<text x="420" y="129" font-family="Arial" font-size="12" fill="#3b2a1a">PK (17)</text>
<rect x="400" y="142" width="14" height="14" fill="#d1a24a"/>
<text x="420" y="153" font-family="Arial" font-size="12" fill="#3b2a1a">BD (11)</text>
<rect x="400" y="166" width="14" height="14" fill="#7d5a6a"/>
<text x="420" y="177" font-family="Arial" font-size="12" fill="#3b2a1a">Others (10)</text>
<rect x="400" y="190" width="14" height="14" fill="#5b7a99"/>
<text x="420" y="201" font-family="Arial" font-size="12" fill="#3b2a1a">SG (8)</text>
<rect x="400" y="214" width="14" height="14" fill="#a8763e"/>
<text x="420" y="225" font-family="Arial" font-size="12" fill="#3b2a1a">NP (8)</text>
<rect x="400" y="238" width="14" height="14" fill="#6b8f71"/>
<text x="420" y="249" font-family="Arial" font-size="12" fill="#3b2a1a">NZ (8)</text>
<rect x="400" y="262" width="14" height="14" fill="#c0654b"/>
<text x="420" y="273" font-family="Arial" font-size="12" fill="#3b2a1a">PH (7)</text>
<rect x="400" y="286" width="14" height="14" fill="#8a9a5b"/>
<text x="420" y="297" font-family="Arial" font-size="12" fill="#3b2a1a">CN (7)</text>
<rect x="400" y="310" width="14" height="14" fill="#3f6b66"/>
<text x="420" y="321" font-family="Arial" font-size="12" fill="#3b2a1a">TH (4)</text>
<rect x="400" y="334" width="14" height="14" fill="#d1a24a"/>
<text x="420" y="345" font-family="Arial" font-size="12" fill="#3b2a1a">FJ (3)</text>
<rect x="400" y="358" width="14" height="14" fill="#7d5a6a"/>
<text x="420" y="369" font-family="Arial" font-size="12" fill="#3b2a1a">NR (3)</text>
<rect x="400" y="382" width="14" height="14" fill="#5b7a99"/>
<text x="420" y="393" font-family="Arial" font-size="12" fill="#3b2a1a">MM (3)</text>
<rect x="400" y="406" width="14" height="14" fill="#a8763e"/>
<text x="420" y="417" font-family="Arial" font-size="12" fill="#3b2a1a">LK (2)</text>
<rect x="400" y="430" width="14" height="14" fill="#6b8f71"/>
<text x="420" y="441" font-family="Arial" font-size="12" fill="#3b2a1a">JP (2)</text>
</svg>
