<svg viewBox="0 0 720 736" xmlns="http://www.w3.org/2000/svg">
  <rect width="720" height="736" fill="#e8d5c1"/>
<text x="360.0" y="30" text-anchor="middle" font-family="Arial" font-size="18" font-weight="bold" fill="#3b2a1a">APNIC-Region ASPA Adoption by Country</text>
<text x="360.0" y="52" text-anchor="middle" font-family="Arial" font-size="12" fill="#7a6650">(n=477)</text>
<path d="M190,383.0 L190.00,233.00 A150,150 0 0,1 324.99,317.60 Z" fill="#c0654b" stroke="#e8d5c1" stroke-width="2"/>
<text x="244.2" y="296.6" text-anchor="middle" font-family="Arial" font-size="11" font-weight="bold" fill="#f2e8db">18%</text>
<path d="M190,383.0 L324.99,317.60 A150,150 0 0,1 324.56,449.29 Z" fill="#8a9a5b" stroke="#e8d5c1" stroke-width="2"/>
<text x="292.0" y="383.3" text-anchor="middle" font-family="Arial" font-size="11" font-weight="bold" fill="#f2e8db">14%</text>
<path d="M190,383.0 L324.56,449.29 A150,150 0 0,1 222.35,529.47 Z" fill="#3f6b66" stroke="#e8d5c1" stroke-width="2"/>
<text x="253.0" y="463.3" text-anchor="middle" font-family="Arial" font-size="11" font-weight="bold" fill="#f2e8db">14%</text>
<path d="M190,383.0 L222.35,529.47 A150,150 0 0,1 151.89,528.08 Z" fill="#d1a24a" stroke="#e8d5c1" stroke-width="2"/>
<text x="188.0" y="485.0" text-anchor="middle" font-family="Arial" font-size="11" font-weight="bold" fill="#f2e8db">8%</text>
<path d="M190,383.0 L151.89,528.08 A150,150 0 0,1 91.33,495.98 Z" fill="#7d5a6a" stroke="#e8d5c1" stroke-width="2"/>
<text x="142.2" y="473.1" text-anchor="middle" font-family="Arial" font-size="11" font-weight="bold" fill="#f2e8db">7%</text>
<path d="M190,383.0 L91.33,495.98 A150,150 0 0,1 54.58,447.51 Z" fill="#5b7a99" stroke="#e8d5c1" stroke-width="2"/>
<text x="108.7" y="444.6" text-anchor="middle" font-family="Arial" font-size="11" font-weight="bold" fill="#f2e8db">6%</text>
<path d="M190,383.0 L54.58,447.51 A150,150 0 0,1 40.29,392.38 Z" fill="#a8763e" stroke="#e8d5c1" stroke-width="2"/>
<text x="91.3" y="408.6" text-anchor="middle" font-family="Arial" font-size="11" font-weight="bold" fill="#f2e8db">6%</text>
<path d="M190,383.0 L40.29,392.38 A150,150 0 0,1 42.28,356.95 Z" fill="#6b8f71" stroke="#e8d5c1" stroke-width="2"/>
<path d="M190,383.0 L42.28,356.95 A150,150 0 0,1 49.56,330.31 Z" fill="#c0654b" stroke="#e8d5c1" stroke-width="2"/>
<path d="M190,383.0 L49.56,330.31 A150,150 0 0,1 60.59,307.15 Z" fill="#8a9a5b" stroke="#e8d5c1" stroke-width="2"/>
<path d="M190,383.0 L60.59,307.15 A150,150 0 0,1 71.68,290.81 Z" fill="#3f6b66" stroke="#e8d5c1" stroke-width="2"/>
<path d="M190,383.0 L71.68,290.81 A150,150 0 0,1 84.81,276.06 Z" fill="#d1a24a" stroke="#e8d5c1" stroke-width="2"/>
<path d="M190,383.0 L84.81,276.06 A150,150 0 0,1 95.10,266.83 Z" fill="#7d5a6a" stroke="#e8d5c1" stroke-width="2"/>
<path d="M190,383.0 L95.10,266.83 A150,150 0 0,1 104.57,259.70 Z" fill="#5b7a99" stroke="#e8d5c1" stroke-width="2"/>
<path d="M190,383.0 L104.57,259.70 A150,150 0 0,1 114.57,253.34 Z" fill="#a8763e" stroke="#e8d5c1" stroke-width="2"/>
<path d="M190,383.0 L114.57,253.34 A150,150 0 0,1 123.27,248.66 Z" fill="#6b8f71" stroke="#e8d5c1" stroke-width="2"/>
<path d="M190,383.0 L123.27,248.66 A150,150 0 0,1 130.44,245.33 Z" fill="#c0654b" stroke="#e8d5c1" stroke-width="2"/>
<path d="M190,383.0 L130.44,245.33 A150,150 0 0,1 137.77,242.39 Z" fill="#8a9a5b" stroke="#e8d5c1" stroke-width="2"/>
<path d="M190,383.0 L137.77,242.39 A150,150 0 0,1 145.25,239.83 Z" fill="#3f6b66" stroke="#e8d5c1" stroke-width="2"/>
<path d="M190,383.0 L145.25,239.83 A150,150 0 0,1 150.94,238.18 Z" fill="#d1a24a" stroke="#e8d5c1" stroke-width="2"/>
<path d="M190,383.0 L150.94,238.18 A150,150 0 0,1 156.69,236.75 Z" fill="#7d5a6a" stroke="#e8d5c1" stroke-width="2"/>
<path d="M190,383.0 L156.69,236.75 A150,150 0 0,1 162.49,235.54 Z" fill="#5b7a99" stroke="#e8d5c1" stroke-width="2"/>
<path d="M190,383.0 L162.49,235.54 A150,150 0 0,1 166.39,234.87 Z" fill="#a8763e" stroke="#e8d5c1" stroke-width="2"/>
<path d="M190,383.0 L166.39,234.87 A150,150 0 0,1 170.30,234.30 Z" fill="#6b8f71" stroke="#e8d5c1" stroke-width="2"/>
<path d="M190,383.0 L170.30,234.30 A150,150 0 0,1 174.22,233.83 Z" fill="#c0654b" stroke="#e8d5c1" stroke-width="2"/>
<path d="M190,383.0 L174.22,233.83 A150,150 0 0,1 178.16,233.47 Z" fill="#8a9a5b" stroke="#e8d5c1" stroke-width="2"/>
<path d="M190,383.0 L178.16,233.47 A150,150 0 0,1 182.10,233.21 Z" fill="#3f6b66" stroke="#e8d5c1" stroke-width="2"/>
<path d="M190,383.0 L182.10,233.21 A150,150 0 0,1 186.05,233.05 Z" fill="#d1a24a" stroke="#e8d5c1" stroke-width="2"/>
<path d="M190,383.0 L186.05,233.05 A150,150 0 0,1 190.00,233.00 Z" fill="#7d5a6a" stroke="#e8d5c1" stroke-width="2"/>
<rect x="400" y="70" width="14" height="14" fill="#c0654b"/>
<text x="420" y="81" font-family="Arial" font-size="12" fill="#3b2a1a">AU (85)</text>
<rect x="400" y="94" width="14" height="14" fill="#8a9a5b"/>
<text x="420" y="105" font-family="Arial" font-size="12" fill="#3b2a1a">BD (69)</text>
<rect x="400" y="118" width="14" height="14" fill="#3f6b66"/>
<text x="420" y="129" font-family="Arial" font-size="12" fill="#3b2a1a">IN (68)</text>
<rect x="400" y="142" width="14" height="14" fill="#d1a24a"/>
<text x="420" y="153" font-family="Arial" font-size="12" fill="#3b2a1a">PH (36)</text>
<rect x="400" y="166" width="14" height="14" fill="#7d5a6a"/>
<text x="420" y="177" font-family="Arial" font-size="12" fill="#3b2a1a">PK (35)</text>
<rect x="400" y="190" width="14" height="14" fill="#5b7a99"/>
<text x="420" y="201" font-family="Arial" font-size="12" fill="#3b2a1a">NP (31)</text>
<rect x="400" y="214" width="14" height="14" fill="#a8763e"/>
<text x="420" y="225" font-family="Arial" font-size="12" fill="#3b2a1a">NZ (29)</text>
<rect x="400" y="238" width="14" height="14" fill="#6b8f71"/>
<text x="420" y="249" font-family="Arial" font-size="12" fill="#3b2a1a">SG (18)</text>
<rect x="400" y="262" width="14" height="14" fill="#c0654b"/>
<text x="420" y="273" font-family="Arial" font-size="12" fill="#3b2a1a">BT (14)</text>
<rect x="400" y="286" width="14" height="14" fill="#8a9a5b"/>
<text x="420" y="297" font-family="Arial" font-size="12" fill="#3b2a1a">TH (13)</text>
<rect x="400" y="310" width="14" height="14" fill="#3f6b66"/>
<text x="420" y="321" font-family="Arial" font-size="12" fill="#3b2a1a">HK (10)</text>
<rect x="400" y="334" width="14" height="14" fill="#d1a24a"/>
<text x="420" y="345" font-family="Arial" font-size="12" fill="#3b2a1a">MM (10)</text>
<rect x="400" y="358" width="14" height="14" fill="#7d5a6a"/>
<text x="420" y="369" font-family="Arial" font-size="12" fill="#3b2a1a">CN (7)</text>
<rect x="400" y="382" width="14" height="14" fill="#5b7a99"/>
<text x="420" y="393" font-family="Arial" font-size="12" fill="#3b2a1a">JP (6)</text>
<rect x="400" y="406" width="14" height="14" fill="#a8763e"/>
<text x="420" y="417" font-family="Arial" font-size="12" fill="#3b2a1a">Others (6)</text>
<rect x="400" y="430" width="14" height="14" fill="#6b8f71"/>
<text x="420" y="441" font-family="Arial" font-size="12" fill="#3b2a1a">ID (5)</text>
<rect x="400" y="454" width="14" height="14" fill="#c0654b"/>
<text x="420" y="465" font-family="Arial" font-size="12" fill="#3b2a1a">FJ (4)</text>
<rect x="400" y="478" width="14" height="14" fill="#8a9a5b"/>
<text x="420" y="489" font-family="Arial" font-size="12" fill="#3b2a1a">PG (4)</text>
<rect x="400" y="502" width="14" height="14" fill="#3f6b66"/>
<text x="420" y="513" font-family="Arial" font-size="12" fill="#3b2a1a">MY (4)</text>
<rect x="400" y="526" width="14" height="14" fill="#d1a24a"/>
<text x="420" y="537" font-family="Arial" font-size="12" fill="#3b2a1a">TO (3)</text>
<rect x="400" y="550" width="14" height="14" fill="#7d5a6a"/>
<text x="420" y="561" font-family="Arial" font-size="12" fill="#3b2a1a">NR (3)</text>
<rect x="400" y="574" width="14" height="14" fill="#5b7a99"/>
<text x="420" y="585" font-family="Arial" font-size="12" fill="#3b2a1a">AF (3)</text>
<rect x="400" y="598" width="14" height="14" fill="#a8763e"/>
<text x="420" y="609" font-family="Arial" font-size="12" fill="#3b2a1a">LK (2)</text>
<rect x="400" y="622" width="14" height="14" fill="#6b8f71"/>
<text x="420" y="633" font-family="Arial" font-size="12" fill="#3b2a1a">LA (2)</text>
<rect x="400" y="646" width="14" height="14" fill="#c0654b"/>
<text x="420" y="657" font-family="Arial" font-size="12" fill="#3b2a1a">NO (2)</text>
<rect x="400" y="670" width="14" height="14" fill="#8a9a5b"/>
<text x="420" y="681" font-family="Arial" font-size="12" fill="#3b2a1a">TL (2)</text>
<rect x="400" y="694" width="14" height="14" fill="#3f6b66"/>
<text x="420" y="705" font-family="Arial" font-size="12" fill="#3b2a1a">WS (2)</text>
<rect x="400" y="718" width="14" height="14" fill="#d1a24a"/>
<text x="420" y="729" font-family="Arial" font-size="12" fill="#3b2a1a">US (2)</text>
<rect x="400" y="742" width="14" height="14" fill="#7d5a6a"/>
<text x="420" y="753" font-family="Arial" font-size="12" fill="#3b2a1a">KH (2)</text>
</svg>
