<svg viewBox="0 0 720 424" xmlns="http://www.w3.org/2000/svg">
  <rect width="720" height="424" fill="#e8d5c1"/>
<text x="360.0" y="30" text-anchor="middle" font-family="Arial" font-size="18" font-weight="bold" fill="#3b2a1a">APNIC-Region ASPA Adoption by Country</text>
<text x="360.0" y="52" text-anchor="middle" font-family="Arial" font-size="12" fill="#7a6650">(n=121)</text>
<path d="M190,227.0 L190.00,77.00 A150,150 0 0,1 334.46,186.61 Z" fill="#c0654b" stroke="#e8d5c1" stroke-width="2"/>
<text x="251.7" y="145.7" text-anchor="middle" font-family="Arial" font-size="11" font-weight="bold" fill="#f2e8db">21%</text>
<path d="M190,227.0 L334.46,186.61 A150,150 0 0,1 298.11,330.98 Z" fill="#8a9a5b" stroke="#e8d5c1" stroke-width="2"/>
<text x="288.9" y="251.9" text-anchor="middle" font-family="Arial" font-size="11" font-weight="bold" fill="#f2e8db">17%</text>
<path d="M190,227.0 L298.11,330.98 A150,150 0 0,1 193.89,376.95 Z" fill="#3f6b66" stroke="#e8d5c1" stroke-width="2"/>
<text x="231.2" y="320.3" text-anchor="middle" font-family="Arial" font-size="11" font-weight="bold" fill="#f2e8db">12%</text>
<path d="M190,227.0 L193.89,376.95 A150,150 0 0,1 118.97,359.12 Z" fill="#d1a24a" stroke="#e8d5c1" stroke-width="2"/>
<text x="166.4" y="326.2" text-anchor="middle" font-family="Arial" font-size="11" font-weight="bold" fill="#f2e8db">8%</text>
<path d="M190,227.0 L118.97,359.12 A150,150 0 0,1 62.77,306.45 Z" fill="#7d5a6a" stroke="#e8d5c1" stroke-width="2"/>
<text x="120.3" y="301.4" text-anchor="middle" font-family="Arial" font-size="11" font-weight="bold" fill="#f2e8db">8%</text>
<path d="M190,227.0 L62.77,306.45 A150,150 0 0,1 41.53,248.35 Z" fill="#5b7a99" stroke="#e8d5c1" stroke-width="2"/>
<text x="94.2" y="262.0" text-anchor="middle" font-family="Arial" font-size="11" font-weight="bold" fill="#f2e8db">7%</text>
<path d="M190,227.0 L41.53,248.35 A150,150 0 0,1 43.64,194.16 Z" fill="#a8763e" stroke="#e8d5c1" stroke-width="2"/>
<text x="88.1" y="223.0" text-anchor="middle" font-family="Arial" font-size="11" font-weight="bold" fill="#f2e8db">6%</text>
<path d="M190,227.0 L43.64,194.16 A150,150 0 0,1 56.97,157.69 Z" fill="#6b8f71" stroke="#e8d5c1" stroke-width="2"/>
<text x="94.2" y="192.0" text-anchor="middle" font-family="Arial" font-size="11" font-weight="bold" fill="#f2e8db">4%</text>
<path d="M190,227.0 L56.97,157.69 A150,150 0 0,1 74.13,131.75 Z" fill="#c0654b" stroke="#e8d5c1" stroke-width="2"/>
<path d="M190,227.0 L74.13,131.75 A150,150 0 0,1 90.31,114.92 Z" fill="#8a9a5b" stroke="#e8d5c1" stroke-width="2"/>
<path d="M190,227.0 L90.31,114.92 A150,150 0 0,1 108.90,100.81 Z" fill="#3f6b66" stroke="#e8d5c1" stroke-width="2"/>
<path d="M190,227.0 L108.90,100.81 A150,150 0 0,1 129.46,89.76 Z" fill="#d1a24a" stroke="#e8d5c1" stroke-width="2"/>
<path d="M190,227.0 L129.46,89.76 A150,150 0 0,1 144.02,84.22 Z" fill="#7d5a6a" stroke="#e8d5c1" stroke-width="2"/>
<path d="M190,227.0 L144.02,84.22 A150,150 0 0,1 159.07,80.22 Z" fill="#5b7a99" stroke="#e8d5c1" stroke-width="2"/>
<path d="M190,227.0 L159.07,80.22 A150,150 0 0,1 174.45,77.81 Z" fill="#a8763e" stroke="#e8d5c1" stroke-width="2"/>
<path d="M190,227.0 L174.45,77.81 A150,150 0 0,1 190.00,77.00 Z" fill="#6b8f71" stroke="#e8d5c1" stroke-width="2"/>
<rect x="400" y="70" width="14" height="14" fill="#c0654b"/>
<text x="420" y="81" font-family="Arial" font-size="12" fill="#3b2a1a">IN (25)</text>
<rect x="400" y="94" width="14" height="14" fill="#8a9a5b"/>
<text x="420" y="105" font-family="Arial" font-size="12" fill="#3b2a1a">AU (20)</text>
<rect x="400" y="118" width="14" height="14" fill="#3f6b66"/>
<text x="420" y="129" font-family="Arial" font-size="12" fill="#3b2a1a">PK (15)</text>
<rect x="400" y="142" width="14" height="14" fill="#d1a24a"/>
<text x="420" y="153" font-family="Arial" font-size="12" fill="#3b2a1a">BD (10)</text>
<rect x="400" y="166" width="14" height="14" fill="#7d5a6a"/>
<text x="420" y="177" font-family="Arial" font-size="12" fill="#3b2a1a">Others (10)</text>
<rect x="400" y="190" width="14" height="14" fill="#5b7a99"/>
<text x="420" y="201" font-family="Arial" font-size="12" fill="#3b2a1a">NZ (8)</text>
<rect x="400" y="214" width="14" height="14" fill="#a8763e"/>
<text x="420" y="225" font-family="Arial" font-size="12" fill="#3b2a1a">SG (7)</text>
<rect x="400" y="238" width="14" height="14" fill="#6b8f71"/>
<text x="420" y="249" font-family="Arial" font-size="12" fill="#3b2a1a">PH (5)</text>
<rect x="400" y="262" width="14" height="14" fill="#c0654b"/>
<text x="420" y="273" font-family="Arial" font-size="12" fill="#3b2a1a">CN (4)</text>
<rect x="400" y="286" width="14" height="14" fill="#8a9a5b"/>
<text x="420" y="297" font-family="Arial" font-size="12" fill="#3b2a1a">FJ (3)</text>
<rect x="400" y="310" width="14" height="14" fill="#3f6b66"/>
<text x="420" y="321" font-family="Arial" font-size="12" fill="#3b2a1a">NR (3)</text>
<rect x="400" y="334" width="14" height="14" fill="#d1a24a"/>
<text x="420" y="345" font-family="Arial" font-size="12" fill="#3b2a1a">N/A (3)</text>
<rect x="400" y="358" width="14" height="14" fill="#7d5a6a"/>
<text x="420" y="369" font-family="Arial" font-size="12" fill="#3b2a1a">TH (2)</text>
<rect x="400" y="382" width="14" height="14" fill="#5b7a99"/>
<text x="420" y="393" font-family="Arial" font-size="12" fill="#3b2a1a">LK (2)</text>
<rect x="400" y="406" width="14" height="14" fill="#a8763e"/>
<text x="420" y="417" font-family="Arial" font-size="12" fill="#3b2a1a">JP (2)</text>
<rect x="400" y="430" width="14" height="14" fill="#6b8f71"/>
<text x="420" y="441" font-family="Arial" font-size="12" fill="#3b2a1a">MM (2)</text>
</svg>
