<svg viewBox="0 0 720 410" xmlns="http://www.w3.org/2000/svg">
  <rect width="720" height="410" fill="#e8d5c1"/>
<text x="360.0" y="30" text-anchor="middle" font-family="Arial" font-size="18" font-weight="bold" fill="#3b2a1a">APNIC-Region ASPA Adoption by Country</text>
<text x="360.0" y="52" text-anchor="middle" font-family="Arial" font-size="12" fill="#7a6650">(n=118)</text>
<path d="M190,220.0 L190.00,70.00 A150,150 0 0,1 339.52,208.03 Z" fill="#c0654b" stroke="#e8d5c1" stroke-width="2"/>
<text x="259.2" y="145.1" text-anchor="middle" font-family="Arial" font-size="11" font-weight="bold" fill="#f2e8db">24%</text>
<path d="M190,220.0 L339.52,208.03 A150,150 0 0,1 272.92,345.00 Z" fill="#8a9a5b" stroke="#e8d5c1" stroke-width="2"/>
<text x="281.7" y="264.6" text-anchor="middle" font-family="Arial" font-size="11" font-weight="bold" fill="#f2e8db">17%</text>
<path d="M190,220.0 L272.92,345.00 A150,150 0 0,1 158.29,366.61 Z" fill="#3f6b66" stroke="#e8d5c1" stroke-width="2"/>
<text x="208.9" y="320.2" text-anchor="middle" font-family="Arial" font-size="11" font-weight="bold" fill="#f2e8db">13%</text>
<path d="M190,220.0 L158.29,366.61 A150,150 0 0,1 82.53,324.64 Z" fill="#d1a24a" stroke="#e8d5c1" stroke-width="2"/>
<text x="140.6" y="309.2" text-anchor="middle" font-family="Arial" font-size="11" font-weight="bold" fill="#f2e8db">9%</text>
<path d="M190,220.0 L82.53,324.64 A150,150 0 0,1 48.89,270.89 Z" fill="#7d5a6a" stroke="#e8d5c1" stroke-width="2"/>
<text x="103.5" y="274.1" text-anchor="middle" font-family="Arial" font-size="11" font-weight="bold" fill="#f2e8db">7%</text>
<path d="M190,220.0 L48.89,270.89 A150,150 0 0,1 40.48,208.03 Z" fill="#5b7a99" stroke="#e8d5c1" stroke-width="2"/>
<text x="88.9" y="233.5" text-anchor="middle" font-family="Arial" font-size="11" font-weight="bold" fill="#f2e8db">7%</text>
<path d="M190,220.0 L40.48,208.03 A150,150 0 0,1 55.10,154.40 Z" fill="#a8763e" stroke="#e8d5c1" stroke-width="2"/>
<text x="91.6" y="193.2" text-anchor="middle" font-family="Arial" font-size="11" font-weight="bold" fill="#f2e8db">6%</text>
<path d="M190,220.0 L55.10,154.40 A150,150 0 0,1 77.11,121.22 Z" fill="#6b8f71" stroke="#e8d5c1" stroke-width="2"/>
<text x="105.0" y="163.6" text-anchor="middle" font-family="Arial" font-size="11" font-weight="bold" fill="#f2e8db">4%</text>
<path d="M190,220.0 L77.11,121.22 A150,150 0 0,1 100.54,99.59 Z" fill="#c0654b" stroke="#e8d5c1" stroke-width="2"/>
<path d="M190,220.0 L100.54,99.59 A150,150 0 0,1 120.84,86.90 Z" fill="#8a9a5b" stroke="#e8d5c1" stroke-width="2"/>
<path d="M190,220.0 L120.84,86.90 A150,150 0 0,1 142.89,77.59 Z" fill="#3f6b66" stroke="#e8d5c1" stroke-width="2"/>
<path d="M190,220.0 L142.89,77.59 A150,150 0 0,1 158.29,73.39 Z" fill="#d1a24a" stroke="#e8d5c1" stroke-width="2"/>
<path d="M190,220.0 L158.29,73.39 A150,150 0 0,1 174.06,70.85 Z" fill="#7d5a6a" stroke="#e8d5c1" stroke-width="2"/>
<path d="M190,220.0 L174.06,70.85 A150,150 0 0,1 190.00,70.00 Z" fill="#5b7a99" stroke="#e8d5c1" stroke-width="2"/>
<rect x="400" y="70" width="14" height="14" fill="#c0654b"/>
<text x="420" y="81" font-family="Arial" font-size="12" fill="#3b2a1a">IN (28)</text>
<rect x="400" y="94" width="14" height="14" fill="#8a9a5b"/>
<text x="420" y="105" font-family="Arial" font-size="12" fill="#3b2a1a">AU (20)</text>
<rect x="400" y="118" width="14" height="14" fill="#3f6b66"/>
<text x="420" y="129" font-family="Arial" font-size="12" fill="#3b2a1a">PK (15)</text>
<rect x="400" y="142" width="14" height="14" fill="#d1a24a"/>
<text x="420" y="153" font-family="Arial" font-size="12" fill="#3b2a1a">Others (11)</text>
<rect x="400" y="166" width="14" height="14" fill="#7d5a6a"/>
<text x="420" y="177" font-family="Arial" font-size="12" fill="#3b2a1a">NZ (8)</text>
<rect x="400" y="190" width="14" height="14" fill="#5b7a99"/>
<text x="420" y="201" font-family="Arial" font-size="12" fill="#3b2a1a">BD (8)</text>
<rect x="400" y="214" width="14" height="14" fill="#a8763e"/>
<text x="420" y="225" font-family="Arial" font-size="12" fill="#3b2a1a">SG (7)</text>
<rect x="400" y="238" width="14" height="14" fill="#6b8f71"/>
<text x="420" y="249" font-family="Arial" font-size="12" fill="#3b2a1a">PH (5)</text>
<rect x="400" y="262" width="14" height="14" fill="#c0654b"/>
<text x="420" y="273" font-family="Arial" font-size="12" fill="#3b2a1a">CN (4)</text>
<rect x="400" y="286" width="14" height="14" fill="#8a9a5b"/>
<text x="420" y="297" font-family="Arial" font-size="12" fill="#3b2a1a">FJ (3)</text>
<rect x="400" y="310" width="14" height="14" fill="#3f6b66"/>
<text x="420" y="321" font-family="Arial" font-size="12" fill="#3b2a1a">NR (3)</text>
<rect x="400" y="334" width="14" height="14" fill="#d1a24a"/>
<text x="420" y="345" font-family="Arial" font-size="12" fill="#3b2a1a">TH (2)</text>
<rect x="400" y="358" width="14" height="14" fill="#7d5a6a"/>
<text x="420" y="369" font-family="Arial" font-size="12" fill="#3b2a1a">LK (2)</text>
<rect x="400" y="382" width="14" height="14" fill="#5b7a99"/>
<text x="420" y="393" font-family="Arial" font-size="12" fill="#3b2a1a">JP (2)</text>
</svg>
