<svg viewBox="0 0 720 410" xmlns="http://www.w3.org/2000/svg">
  <rect width="720" height="410" fill="#e8d5c1"/>
<text x="360.0" y="30" text-anchor="middle" font-family="Arial" font-size="18" font-weight="bold" fill="#3b2a1a">APNIC-Region ASPA Adoption by Country</text>
<text x="360.0" y="52" text-anchor="middle" font-family="Arial" font-size="12" fill="#7a6650">(n=106)</text>
<path d="M190,220.0 L190.00,70.00 A150,150 0 0,1 332.10,171.96 Z" fill="#c0654b" stroke="#e8d5c1" stroke-width="2"/>
<text x="249.5" y="137.1" text-anchor="middle" font-family="Arial" font-size="11" font-weight="bold" fill="#f2e8db">20%</text>
<path d="M190,220.0 L332.10,171.96 A150,150 0 0,1 300.67,321.25 Z" fill="#8a9a5b" stroke="#e8d5c1" stroke-width="2"/>
<text x="289.8" y="241.0" text-anchor="middle" font-family="Arial" font-size="11" font-weight="bold" fill="#f2e8db">17%</text>
<path d="M190,220.0 L300.67,321.25 A150,150 0 0,1 181.11,369.74 Z" fill="#3f6b66" stroke="#e8d5c1" stroke-width="2"/>
<text x="228.3" y="314.5" text-anchor="middle" font-family="Arial" font-size="11" font-weight="bold" fill="#f2e8db">14%</text>
<path d="M190,220.0 L181.11,369.74 A150,150 0 0,1 98.98,339.23 Z" fill="#d1a24a" stroke="#e8d5c1" stroke-width="2"/>
<text x="154.5" y="315.6" text-anchor="middle" font-family="Arial" font-size="11" font-weight="bold" fill="#f2e8db">9%</text>
<path d="M190,220.0 L98.98,339.23 A150,150 0 0,1 54.58,284.51 Z" fill="#7d5a6a" stroke="#e8d5c1" stroke-width="2"/>
<text x="110.8" y="284.3" text-anchor="middle" font-family="Arial" font-size="11" font-weight="bold" fill="#f2e8db">8%</text>
<path d="M190,220.0 L54.58,284.51 A150,150 0 0,1 40.07,215.56 Z" fill="#5b7a99" stroke="#e8d5c1" stroke-width="2"/>
<text x="90.2" y="241.0" text-anchor="middle" font-family="Arial" font-size="11" font-weight="bold" fill="#f2e8db">8%</text>
<path d="M190,220.0 L40.07,215.56 A150,150 0 0,1 47.90,171.96 Z" fill="#a8763e" stroke="#e8d5c1" stroke-width="2"/>
<text x="89.6" y="202.0" text-anchor="middle" font-family="Arial" font-size="11" font-weight="bold" fill="#f2e8db">5%</text>
<path d="M190,220.0 L47.90,171.96 A150,150 0 0,1 63.16,139.93 Z" fill="#6b8f71" stroke="#e8d5c1" stroke-width="2"/>
<path d="M190,220.0 L63.16,139.93 A150,150 0 0,1 85.52,112.37 Z" fill="#c0654b" stroke="#e8d5c1" stroke-width="2"/>
<path d="M190,220.0 L85.52,112.37 A150,150 0 0,1 106.20,95.59 Z" fill="#8a9a5b" stroke="#e8d5c1" stroke-width="2"/>
<path d="M190,220.0 L106.20,95.59 A150,150 0 0,1 129.53,82.73 Z" fill="#3f6b66" stroke="#e8d5c1" stroke-width="2"/>
<path d="M190,220.0 L129.53,82.73 A150,150 0 0,1 154.77,74.20 Z" fill="#d1a24a" stroke="#e8d5c1" stroke-width="2"/>
<path d="M190,220.0 L154.77,74.20 A150,150 0 0,1 172.26,71.05 Z" fill="#7d5a6a" stroke="#e8d5c1" stroke-width="2"/>
<path d="M190,220.0 L172.26,71.05 A150,150 0 0,1 190.00,70.00 Z" fill="#5b7a99" stroke="#e8d5c1" stroke-width="2"/>
<rect x="400" y="70" width="14" height="14" fill="#c0654b"/>
<text x="420" y="81" font-family="Arial" font-size="12" fill="#3b2a1a">IN (21)</text>
<rect x="400" y="94" width="14" height="14" fill="#8a9a5b"/>
<text x="420" y="105" font-family="Arial" font-size="12" fill="#3b2a1a">AU (18)</text>
<rect x="400" y="118" width="14" height="14" fill="#3f6b66"/>
<text x="420" y="129" font-family="Arial" font-size="12" fill="#3b2a1a">PK (15)</text>
<rect x="400" y="142" width="14" height="14" fill="#d1a24a"/>
<text x="420" y="153" font-family="Arial" font-size="12" fill="#3b2a1a">Others (10)</text>
<rect x="400" y="166" width="14" height="14" fill="#7d5a6a"/>
<text x="420" y="177" font-family="Arial" font-size="12" fill="#3b2a1a">NZ (8)</text>
<rect x="400" y="190" width="14" height="14" fill="#5b7a99"/>
<text x="420" y="201" font-family="Arial" font-size="12" fill="#3b2a1a">BD (8)</text>
<rect x="400" y="214" width="14" height="14" fill="#a8763e"/>
<text x="420" y="225" font-family="Arial" font-size="12" fill="#3b2a1a">SG (5)</text>
<rect x="400" y="238" width="14" height="14" fill="#6b8f71"/>
<text x="420" y="249" font-family="Arial" font-size="12" fill="#3b2a1a">PH (4)</text>
<rect x="400" y="262" width="14" height="14" fill="#c0654b"/>
<text x="420" y="273" font-family="Arial" font-size="12" fill="#3b2a1a">CN (4)</text>
<rect x="400" y="286" width="14" height="14" fill="#8a9a5b"/>
<text x="420" y="297" font-family="Arial" font-size="12" fill="#3b2a1a">FJ (3)</text>
<rect x="400" y="310" width="14" height="14" fill="#3f6b66"/>
<text x="420" y="321" font-family="Arial" font-size="12" fill="#3b2a1a">JP (3)</text>
<rect x="400" y="334" width="14" height="14" fill="#d1a24a"/>
<text x="420" y="345" font-family="Arial" font-size="12" fill="#3b2a1a">NR (3)</text>
<rect x="400" y="358" width="14" height="14" fill="#7d5a6a"/>
<text x="420" y="369" font-family="Arial" font-size="12" fill="#3b2a1a">TH (2)</text>
<rect x="400" y="382" width="14" height="14" fill="#5b7a99"/>
<text x="420" y="393" font-family="Arial" font-size="12" fill="#3b2a1a">LK (2)</text>
</svg>
