<svg viewBox="0 0 720 460" xmlns="http://www.w3.org/2000/svg">
  <rect width="720" height="460" fill="#e8d5c1"/>
<rect x="70" y="60" width="610" height="330" fill="#f2e8db"/>
<text x="360.0" y="30" text-anchor="middle" font-family="Arial" font-size="20" font-weight="bold" fill="#3b2a1a">ASPA Adoption by RIR</text>
<line x1="70" y1="390.0" x2="680" y2="390.0" stroke="#d3bfa4" stroke-width="1"/>
<text x="60" y="394.0" text-anchor="end" font-family="Arial" font-size="11" fill="#7a6650">0</text>
<line x1="70" y1="307.5" x2="680" y2="307.5" stroke="#d3bfa4" stroke-width="1"/>
<text x="60" y="311.5" text-anchor="end" font-family="Arial" font-size="11" fill="#7a6650">132</text>
<line x1="70" y1="225.0" x2="680" y2="225.0" stroke="#d3bfa4" stroke-width="1"/>
<text x="60" y="229.0" text-anchor="end" font-family="Arial" font-size="11" fill="#7a6650">263</text>
<line x1="70" y1="142.5" x2="680" y2="142.5" stroke="#d3bfa4" stroke-width="1"/>
<text x="60" y="146.5" text-anchor="end" font-family="Arial" font-size="11" fill="#7a6650">394</text>
<line x1="70" y1="60.0" x2="680" y2="60.0" stroke="#d3bfa4" stroke-width="1"/>
<text x="60" y="64.0" text-anchor="end" font-family="Arial" font-size="11" fill="#7a6650">526</text>
<rect x="94.4" y="60.0" width="73.2" height="330.0" fill="#c0654b" stroke="#3b2a1a" stroke-width="0.8" rx="3"/>
<text x="131.0" y="52.0" text-anchor="middle" font-family="Arial" font-size="13" font-weight="bold" fill="#3b2a1a">526</text>
<text x="131.0" y="36.0" text-anchor="middle" font-family="Arial" font-size="10" fill="#7a6650">(1.5%)</text>
<text x="131.0" y="410.0" text-anchor="middle" font-family="Arial" font-size="13" font-weight="bold" fill="#3b2a1a">ARIN</text>
<rect x="216.4" y="303.4" width="73.2" height="86.6" fill="#8a9a5b" stroke="#3b2a1a" stroke-width="0.8" rx="3"/>
<text x="253.0" y="295.4" text-anchor="middle" font-family="Arial" font-size="13" font-weight="bold" fill="#3b2a1a">138</text>
<text x="253.0" y="279.4" text-anchor="middle" font-family="Arial" font-size="10" fill="#7a6650">(0.4%)</text>
<text x="253.0" y="410.0" text-anchor="middle" font-family="Arial" font-size="13" font-weight="bold" fill="#3b2a1a">APNIC</text>
<rect x="338.4" y="304.0" width="73.2" height="86.0" fill="#3f6b66" stroke="#3b2a1a" stroke-width="0.8" rx="3"/>
<text x="375.0" y="296.0" text-anchor="middle" font-family="Arial" font-size="13" font-weight="bold" fill="#3b2a1a">137</text>
<text x="375.0" y="280.0" text-anchor="middle" font-family="Arial" font-size="10" fill="#7a6650">(0.3%)</text>
<text x="375.0" y="410.0" text-anchor="middle" font-family="Arial" font-size="13" font-weight="bold" fill="#3b2a1a">RIPENCC</text>
<rect x="460.4" y="316.0" width="73.2" height="74.0" fill="#d1a24a" stroke="#3b2a1a" stroke-width="0.8" rx="3"/>
<text x="497.0" y="308.0" text-anchor="middle" font-family="Arial" font-size="13" font-weight="bold" fill="#3b2a1a">118</text>
<text x="497.0" y="292.0" text-anchor="middle" font-family="Arial" font-size="10" fill="#7a6650">(0.8%)</text>
<text x="497.0" y="410.0" text-anchor="middle" font-family="Arial" font-size="13" font-weight="bold" fill="#3b2a1a">LACNIC</text>
<rect x="582.4" y="390.0" width="73.2" height="0.0" fill="#7d5a6a" stroke="#3b2a1a" stroke-width="0.8" rx="3"/>
<text x="619.0" y="382.0" text-anchor="middle" font-family="Arial" font-size="13" font-weight="bold" fill="#3b2a1a">0</text>
<text x="619.0" y="366.0" text-anchor="middle" font-family="Arial" font-size="10" fill="#7a6650">(0.0%)</text>
<text x="619.0" y="410.0" text-anchor="middle" font-family="Arial" font-size="13" font-weight="bold" fill="#3b2a1a">AFRINIC</text>
<text x="360.0" y="445" text-anchor="middle" font-family="Arial" font-size="10" fill="#7a6650">ASNs with ASPA published (count and coverage %)</text>
</svg>
