<svg viewBox="0 0 640 400" xmlns="http://www.w3.org/2000/svg">
  <rect width="640" height="400" fill="#e8d5c1"/>
<text x="320.0" y="30" text-anchor="middle" font-family="Arial" font-size="16" font-weight="bold" fill="#3b2a1a">Top ROV-Enforcing Countries (&gt;10M Internet Users) - Asia</text>
<rect x="140" y="55" width="430" height="24" fill="#f2e8db"/>
<rect x="140" y="55" width="430.0" height="24" fill="#3f6b66" rx="3"/>
<text x="132" y="71.0" text-anchor="end" font-family="Arial" font-size="11" font-weight="normal" fill="#3b2a1a">Sri Lanka</text>
<text x="578.0" y="71.0" font-family="Arial" font-size="11" font-weight="bold" fill="#3b2a1a">62.6%</text>
<rect x="140" y="87" width="430" height="24" fill="#f2e8db"/>
<rect x="140" y="87" width="368.2" height="24" fill="#3f6b66" rx="3"/>
<text x="132" y="103.0" text-anchor="end" font-family="Arial" font-size="11" font-weight="normal" fill="#3b2a1a">Saudi Arabia</text>
<text x="516.2" y="103.0" font-family="Arial" font-size="11" font-weight="bold" fill="#3b2a1a">53.6%</text>
<rect x="140" y="119" width="430" height="24" fill="#f2e8db"/>
<rect x="140" y="119" width="344.4" height="24" fill="#3f6b66" rx="3"/>
<text x="132" y="135.0" text-anchor="end" font-family="Arial" font-size="11" font-weight="normal" fill="#3b2a1a">Myanmar</text>
<text x="492.4" y="135.0" font-family="Arial" font-size="11" font-weight="bold" fill="#3b2a1a">50.2%</text>
<rect x="140" y="151" width="430" height="24" fill="#f2e8db"/>
<rect x="140" y="151" width="279.9" height="24" fill="#3f6b66" rx="3"/>
<text x="132" y="167.0" text-anchor="end" font-family="Arial" font-size="11" font-weight="normal" fill="#3b2a1a">Philippines</text>
<text x="427.9" y="167.0" font-family="Arial" font-size="11" font-weight="bold" fill="#3b2a1a">40.8%</text>
<rect x="140" y="183" width="430" height="24" fill="#f2e8db"/>
<rect x="140" y="183" width="270.6" height="24" fill="#3f6b66" rx="3"/>
<text x="132" y="199.0" text-anchor="end" font-family="Arial" font-size="11" font-weight="normal" fill="#3b2a1a">Japan</text>
<text x="418.6" y="199.0" font-family="Arial" font-size="11" font-weight="bold" fill="#3b2a1a">39.4%</text>
<rect x="140" y="215" width="430" height="24" fill="#f2e8db"/>
<rect x="140" y="215" width="241.5" height="24" fill="#3f6b66" rx="3"/>
<text x="132" y="231.0" text-anchor="end" font-family="Arial" font-size="11" font-weight="normal" fill="#3b2a1a">Iran</text>
<text x="389.5" y="231.0" font-family="Arial" font-size="11" font-weight="bold" fill="#3b2a1a">35.2%</text>
<rect x="140" y="247" width="430" height="24" fill="#f2e8db"/>
<rect x="140" y="247" width="196.8" height="24" fill="#3f6b66" rx="3"/>
<text x="132" y="263.0" text-anchor="end" font-family="Arial" font-size="11" font-weight="normal" fill="#3b2a1a">Malaysia</text>
<text x="344.8" y="263.0" font-family="Arial" font-size="11" font-weight="bold" fill="#3b2a1a">28.7%</text>
<rect x="140" y="279" width="430" height="24" fill="#f2e8db"/>
<rect x="140" y="279" width="160.2" height="24" fill="#3f6b66" rx="3"/>
<text x="132" y="295.0" text-anchor="end" font-family="Arial" font-size="11" font-weight="normal" fill="#3b2a1a">Turkey</text>
<text x="308.2" y="295.0" font-family="Arial" font-size="11" font-weight="bold" fill="#3b2a1a">23.3%</text>
<rect x="140" y="311" width="430" height="24" fill="#f2e8db"/>
<rect x="140" y="311" width="129.8" height="24" fill="#3f6b66" rx="3"/>
<text x="132" y="327.0" text-anchor="end" font-family="Arial" font-size="11" font-weight="normal" fill="#3b2a1a">Vietnam</text>
<text x="277.8" y="327.0" font-family="Arial" font-size="11" font-weight="bold" fill="#3b2a1a">18.9%</text>
<rect x="140" y="343" width="430" height="24" fill="#f2e8db"/>
<rect x="140" y="343" width="7.1" height="24" fill="#c0654b" rx="3"/>
<text x="132" y="359.0" text-anchor="end" font-family="Arial" font-size="11" font-weight="bold" fill="#3b2a1a">India</text>
<text x="155.1" y="359.0" font-family="Arial" font-size="11" font-weight="bold" fill="#3b2a1a">1.0%</text>
<text x="320.0" y="390" text-anchor="middle" font-family="Arial" font-size="9" fill="#7a6650">28-day ROV filter rate, source: APNIC Labs I-ROV measurement. India highlighted regardless of rank.</text>
</svg>
