<svg viewBox="0 0 640 400" xmlns="http://www.w3.org/2000/svg">
  <rect width="640" height="400" fill="#e8d5c1"/>
<text x="320.0" y="30" text-anchor="middle" font-family="Arial" font-size="16" font-weight="bold" fill="#3b2a1a">Top ROV-Enforcing Countries (&gt;10M Internet Users) - World</text>
<rect x="140" y="55" width="430" height="24" fill="#f2e8db"/>
<rect x="140" y="55" width="430.0" height="24" fill="#3f6b66" rx="3"/>
<text x="132" y="71.0" text-anchor="end" font-family="Arial" font-size="11" font-weight="normal" fill="#3b2a1a">Morocco</text>
<text x="578.0" y="71.0" font-family="Arial" font-size="11" font-weight="bold" fill="#3b2a1a">98.8%</text>
<rect x="140" y="87" width="430" height="24" fill="#f2e8db"/>
<rect x="140" y="87" width="394.9" height="24" fill="#3f6b66" rx="3"/>
<text x="132" y="103.0" text-anchor="end" font-family="Arial" font-size="11" font-weight="normal" fill="#3b2a1a">Egypt</text>
<text x="542.9" y="103.0" font-family="Arial" font-size="11" font-weight="bold" fill="#3b2a1a">90.7%</text>
<rect x="140" y="119" width="430" height="24" fill="#f2e8db"/>
<rect x="140" y="119" width="332.2" height="24" fill="#3f6b66" rx="3"/>
<text x="132" y="135.0" text-anchor="end" font-family="Arial" font-size="11" font-weight="normal" fill="#3b2a1a">Netherlands</text>
<text x="480.2" y="135.0" font-family="Arial" font-size="11" font-weight="bold" fill="#3b2a1a">76.3%</text>
<rect x="140" y="151" width="430" height="24" fill="#f2e8db"/>
<rect x="140" y="151" width="327.4" height="24" fill="#3f6b66" rx="3"/>
<text x="132" y="167.0" text-anchor="end" font-family="Arial" font-size="11" font-weight="normal" fill="#3b2a1a">France</text>
<text x="475.4" y="167.0" font-family="Arial" font-size="11" font-weight="bold" fill="#3b2a1a">75.2%</text>
<rect x="140" y="183" width="430" height="24" fill="#f2e8db"/>
<rect x="140" y="183" width="317.5" height="24" fill="#3f6b66" rx="3"/>
<text x="132" y="199.0" text-anchor="end" font-family="Arial" font-size="11" font-weight="normal" fill="#3b2a1a">Spain</text>
<text x="465.5" y="199.0" font-family="Arial" font-size="11" font-weight="bold" fill="#3b2a1a">72.9%</text>
<rect x="140" y="215" width="430" height="24" fill="#f2e8db"/>
<rect x="140" y="215" width="297.9" height="24" fill="#3f6b66" rx="3"/>
<text x="132" y="231.0" text-anchor="end" font-family="Arial" font-size="11" font-weight="normal" fill="#3b2a1a">Sudan</text>
<text x="445.9" y="231.0" font-family="Arial" font-size="11" font-weight="bold" fill="#3b2a1a">68.4%</text>
<rect x="140" y="247" width="430" height="24" fill="#f2e8db"/>
<rect x="140" y="247" width="271.9" height="24" fill="#3f6b66" rx="3"/>
<text x="132" y="263.0" text-anchor="end" font-family="Arial" font-size="11" font-weight="normal" fill="#3b2a1a">Sri Lanka</text>
<text x="419.9" y="263.0" font-family="Arial" font-size="11" font-weight="bold" fill="#3b2a1a">62.5%</text>
<rect x="140" y="279" width="430" height="24" fill="#f2e8db"/>
<rect x="140" y="279" width="269.3" height="24" fill="#3f6b66" rx="3"/>
<text x="132" y="295.0" text-anchor="end" font-family="Arial" font-size="11" font-weight="normal" fill="#3b2a1a">United States</text>
<text x="417.3" y="295.0" font-family="Arial" font-size="11" font-weight="bold" fill="#3b2a1a">61.9%</text>
<rect x="140" y="311" width="430" height="24" fill="#f2e8db"/>
<rect x="140" y="311" width="247.1" height="24" fill="#3f6b66" rx="3"/>
<text x="132" y="327.0" text-anchor="end" font-family="Arial" font-size="11" font-weight="normal" fill="#3b2a1a">Australia</text>
<text x="395.1" y="327.0" font-family="Arial" font-size="11" font-weight="bold" fill="#3b2a1a">56.8%</text>
<rect x="140" y="343" width="430" height="24" fill="#f2e8db"/>
<rect x="140" y="343" width="4.5" height="24" fill="#c0654b" rx="3"/>
<text x="132" y="359.0" text-anchor="end" font-family="Arial" font-size="11" font-weight="bold" fill="#3b2a1a">India</text>
<text x="152.5" y="359.0" font-family="Arial" font-size="11" font-weight="bold" fill="#3b2a1a">1.0%</text>
<text x="320.0" y="390" text-anchor="middle" font-family="Arial" font-size="9" fill="#7a6650">28-day ROV filter rate, source: APNIC Labs I-ROV measurement. India highlighted regardless of rank.</text>
</svg>
