<svg viewBox="0 0 640 400" xmlns="http://www.w3.org/2000/svg">
  <rect width="640" height="400" fill="#e8d5c1"/>
<text x="320.0" y="30" text-anchor="middle" font-family="Arial" font-size="16" font-weight="bold" fill="#3b2a1a">Top ROV-Enforcing Countries (&gt;10M Internet Users) - Asia</text>
<rect x="140" y="55" width="430" height="24" fill="#f2e8db"/>
<rect x="140" y="55" width="430.0" height="24" fill="#3f6b66" rx="3"/>
<text x="132" y="71.0" text-anchor="end" font-family="Arial" font-size="11" font-weight="normal" fill="#3b2a1a">Sri Lanka</text>
<text x="578.0" y="71.0" font-family="Arial" font-size="11" font-weight="bold" fill="#3b2a1a">62.6%</text>
<rect x="140" y="87" width="430" height="24" fill="#f2e8db"/>
<rect x="140" y="87" width="356.1" height="24" fill="#3f6b66" rx="3"/>
<text x="132" y="103.0" text-anchor="end" font-family="Arial" font-size="11" font-weight="normal" fill="#3b2a1a">Saudi Arabia</text>
<text x="504.1" y="103.0" font-family="Arial" font-size="11" font-weight="bold" fill="#3b2a1a">51.8%</text>
<rect x="140" y="119" width="430" height="24" fill="#f2e8db"/>
<rect x="140" y="119" width="352.6" height="24" fill="#3f6b66" rx="3"/>
<text x="132" y="135.0" text-anchor="end" font-family="Arial" font-size="11" font-weight="normal" fill="#3b2a1a">Myanmar</text>
<text x="500.6" y="135.0" font-family="Arial" font-size="11" font-weight="bold" fill="#3b2a1a">51.3%</text>
<rect x="140" y="151" width="430" height="24" fill="#f2e8db"/>
<rect x="140" y="151" width="281.5" height="24" fill="#3f6b66" rx="3"/>
<text x="132" y="167.0" text-anchor="end" font-family="Arial" font-size="11" font-weight="normal" fill="#3b2a1a">Philippines</text>
<text x="429.5" y="167.0" font-family="Arial" font-size="11" font-weight="bold" fill="#3b2a1a">41.0%</text>
<rect x="140" y="183" width="430" height="24" fill="#f2e8db"/>
<rect x="140" y="183" width="268.0" height="24" fill="#3f6b66" rx="3"/>
<text x="132" y="199.0" text-anchor="end" font-family="Arial" font-size="11" font-weight="normal" fill="#3b2a1a">Japan</text>
<text x="416.0" y="199.0" font-family="Arial" font-size="11" font-weight="bold" fill="#3b2a1a">39.0%</text>
<rect x="140" y="215" width="430" height="24" fill="#f2e8db"/>
<rect x="140" y="215" width="239.8" height="24" fill="#3f6b66" rx="3"/>
<text x="132" y="231.0" text-anchor="end" font-family="Arial" font-size="11" font-weight="normal" fill="#3b2a1a">Iran</text>
<text x="387.8" y="231.0" font-family="Arial" font-size="11" font-weight="bold" fill="#3b2a1a">34.9%</text>
<rect x="140" y="247" width="430" height="24" fill="#f2e8db"/>
<rect x="140" y="247" width="196.4" height="24" fill="#3f6b66" rx="3"/>
<text x="132" y="263.0" text-anchor="end" font-family="Arial" font-size="11" font-weight="normal" fill="#3b2a1a">Malaysia</text>
<text x="344.4" y="263.0" font-family="Arial" font-size="11" font-weight="bold" fill="#3b2a1a">28.6%</text>
<rect x="140" y="279" width="430" height="24" fill="#f2e8db"/>
<rect x="140" y="279" width="159.9" height="24" fill="#3f6b66" rx="3"/>
<text x="132" y="295.0" text-anchor="end" font-family="Arial" font-size="11" font-weight="normal" fill="#3b2a1a">Turkey</text>
<text x="307.9" y="295.0" font-family="Arial" font-size="11" font-weight="bold" fill="#3b2a1a">23.3%</text>
<rect x="140" y="311" width="430" height="24" fill="#f2e8db"/>
<rect x="140" y="311" width="129.4" height="24" fill="#3f6b66" rx="3"/>
<text x="132" y="327.0" text-anchor="end" font-family="Arial" font-size="11" font-weight="normal" fill="#3b2a1a">Vietnam</text>
<text x="277.4" y="327.0" font-family="Arial" font-size="11" font-weight="bold" fill="#3b2a1a">18.8%</text>
<rect x="140" y="343" width="430" height="24" fill="#f2e8db"/>
<rect x="140" y="343" width="7.2" height="24" fill="#c0654b" rx="3"/>
<text x="132" y="359.0" text-anchor="end" font-family="Arial" font-size="11" font-weight="bold" fill="#3b2a1a">India</text>
<text x="155.2" y="359.0" font-family="Arial" font-size="11" font-weight="bold" fill="#3b2a1a">1.0%</text>
<text x="320.0" y="390" text-anchor="middle" font-family="Arial" font-size="9" fill="#7a6650">28-day ROV filter rate, source: APNIC Labs I-ROV measurement. India highlighted regardless of rank.</text>
</svg>
